<svg width="40" height="38" viewBox="0 0 40 38" fill="none" xmlns="http://www.w3.org/2000/svg">
<g clip-path="url(#clip0_646_1503)">
<path d="M28.5812 0.0312495C28.7562 0.0874996 28.9031 0.290625 28.8687 0.4375C28.8625 0.465625 28.9187 0.490624 29.0344 0.515625C29.3875 0.5875 29.5625 0.765625 29.5625 1.04375C29.5625 1.23125 29.4719 1.44687 29.3719 1.5C29.2437 1.57187 29.0187 1.52187 28.7656 1.36562C28.5594 1.24062 28.5406 1.23437 28.5969 1.30937C28.65 1.38125 28.6531 1.40937 28.625 1.4875C28.6062 1.5375 28.5531 1.61562 28.5062 1.6625C28.3875 1.79062 28.2625 1.77812 27.8937 1.60312L27.5875 1.45625L27.5281 1.52812C27.4969 1.56875 27.4687 1.63437 27.4687 1.675C27.4687 1.825 27.5312 1.89062 27.8344 2.04687C28.2375 2.25625 28.9156 2.65625 29.6406 3.1125C30.9844 3.9625 31.5406 4.25312 32.0906 4.39375C32.3406 4.45937 32.3344 4.44062 32.2781 4.78437L32.2406 5L32.1281 4.98125C31.4687 4.8625 30.6719 4.4875 29.4719 3.7375C28.3281 3.01875 27.5906 2.59687 27.0937 2.375C26.1406 1.94687 25.4125 1.78437 24.6437 1.82187C23.8406 1.86562 23.1906 2.09687 22.4375 2.60937C22.2469 2.7375 22.0844 2.84375 22.075 2.84375C22.0656 2.84375 21.975 2.77187 21.875 2.68125L21.6906 2.52187L21.9375 2.325C22.6375 1.775 23.2875 1.45937 24.0656 1.29062C24.4656 1.20625 25.4 1.2125 25.8437 1.30937C26.1125 1.36562 26.8812 1.60625 27.1031 1.70312C27.15 1.72187 27.1531 1.71562 27.125 1.64062C27.05 1.44687 27.1156 1.04375 27.2687 0.724999C27.3906 0.474999 27.65 0.2125 27.875 0.1125C28.0812 0.0187497 28.4156 -0.0187507 28.5812 0.0312495Z" fill="#FDC23E"/>
<path d="M37.8283 0.309386C38.6377 0.440636 39.3096 0.93751 39.6596 1.67189C39.8283 2.02189 39.8846 2.26876 39.8877 2.65626C39.8908 3.59064 39.3596 4.38439 38.3189 5.00001C38.1283 5.11251 37.4033 5.44689 37.3877 5.42814C37.3846 5.42501 37.4033 5.27814 37.4314 5.10626L37.4783 4.78751L37.6971 4.68439C38.2064 4.44689 38.6908 4.05001 38.9408 3.66876C39.3189 3.08751 39.3314 2.38439 38.9783 1.78439C38.8408 1.55626 38.5158 1.24064 38.2877 1.11564C38.0877 1.00626 37.6971 0.90626 37.4783 0.90626C37.2252 0.90626 36.9127 0.987511 36.6502 1.12189L36.4158 1.24064L36.1939 1.05626C36.0689 0.953135 35.9689 0.859385 35.9689 0.846886C35.9689 0.775011 36.6814 0.428135 36.9752 0.359385C37.2252 0.300011 37.6252 0.278136 37.8283 0.309386Z" fill="#FDC23E"/>
<path d="M33.966 0.45625C34.8847 0.615625 35.8285 1.14688 36.4566 1.8625C36.6597 2.09375 37.0129 2.5625 36.9847 2.5625C36.9754 2.5625 36.7879 2.51875 36.5691 2.46563C36.2379 2.38438 36.1629 2.35313 36.1097 2.28438C35.6816 1.71563 35.0035 1.29063 34.1816 1.07813C33.7597 0.96875 33.0691 0.9375 32.6254 1.0125C31.5941 1.18125 30.6316 1.71563 29.8222 2.57188L29.5941 2.8125L29.3285 2.66563C29.1847 2.58125 29.0629 2.50625 29.0629 2.49375C29.0629 2.44375 29.8441 1.68438 30.0785 1.50938C30.7504 1.00625 31.4004 0.7 32.1879 0.509375C32.466 0.44375 32.6066 0.428125 33.1097 0.41875C33.5347 0.4125 33.7785 0.421875 33.966 0.45625Z" fill="#FDC23E"/>
<path d="M18.297 1.39376C19.2157 1.55626 19.9063 1.86876 21.6251 2.89688C23.0688 3.75938 23.4251 3.94376 24.122 4.19063C24.4126 4.29063 24.4126 4.29063 24.1595 4.10938C23.9657 3.96876 23.772 3.73438 23.7188 3.57501C23.672 3.43438 23.697 3.18751 23.772 3.05938C23.8157 2.98438 24.1345 2.75001 24.1938 2.75001C24.2032 2.75001 24.2032 2.79688 24.197 2.85001C24.1907 2.90938 24.2126 2.86876 24.247 2.75626C24.3532 2.39688 24.522 2.29376 24.9595 2.32188C25.2407 2.33751 25.3532 2.38751 25.4126 2.51563C25.4657 2.63126 25.3938 2.75938 25.1595 2.97501C25.047 3.07813 24.9845 3.14688 25.022 3.12813C25.0595 3.10938 25.1251 3.09376 25.172 3.09376C25.2782 3.09376 25.3438 3.24376 25.3438 3.49688C25.3438 3.65313 25.3313 3.70001 25.2626 3.78126C25.2157 3.83438 25.1188 3.90626 25.0438 3.94376C24.9595 3.98126 24.9063 4.02813 24.9063 4.05938C24.9063 4.14063 25.0563 4.26876 25.2626 4.36251C25.4313 4.44063 25.4688 4.44376 25.7188 4.42813C26.5407 4.36876 27.3657 4.01876 28.1438 3.40313L28.3345 3.25313L28.5438 3.39376L28.7563 3.53751L28.622 3.65001C27.847 4.31876 27.0188 4.75313 26.1876 4.92813C25.797 5.00938 25.0876 5.00001 24.6657 4.90938C23.8282 4.73438 23.097 4.40001 21.8126 3.60626C19.7501 2.33751 19.1188 2.02188 18.197 1.80938C17.797 1.71563 17.047 1.69376 16.6376 1.76251C16.1813 1.84063 15.4938 2.07813 15.4595 2.16876C15.447 2.19688 15.4751 2.29063 15.5157 2.38126C15.6532 2.67501 15.597 3.09376 15.4032 3.23126C15.2563 3.33438 14.8751 3.24688 14.8751 3.10938C14.8751 3.01251 14.8188 3.06563 14.7845 3.19376C14.7376 3.38438 14.6407 3.52813 14.5282 3.57501L14.4282 3.61563L14.6438 3.68126C16.7126 4.30313 18.2032 4.40938 19.3813 4.01876C19.8407 3.86563 20.2376 3.65938 20.6063 3.37813L20.7907 3.23751L20.8657 3.33126C21.0595 3.56563 21.1001 3.62813 21.0751 3.65313C20.9907 3.72501 20.6501 3.96876 20.5157 4.05313C19.6157 4.60313 18.7657 4.81251 17.5813 4.77188C16.4188 4.73126 15.6001 4.53438 13.047 3.68438C10.4063 2.80313 9.65947 2.61876 8.5001 2.57188C7.85947 2.54688 7.72197 2.58751 7.59385 2.84376C7.4876 3.05626 7.4876 3.07813 7.6126 3.12188C7.88447 3.21876 8.10322 3.52188 8.08759 3.77501C8.07822 3.91876 8.0751 3.92188 7.94385 3.96563C7.81885 4.00313 7.8001 4.00313 7.65635 3.93126C7.56885 3.88751 7.5001 3.85626 7.5001 3.86251C7.5001 3.86563 7.5501 3.94063 7.60947 4.03126C7.75635 4.24688 7.75947 4.40626 7.6251 4.53126C7.4126 4.72813 6.96259 4.77813 6.79385 4.62188C6.67197 4.51251 6.6251 4.37188 6.6251 4.13438C6.6251 3.97188 6.61572 3.93438 6.58759 3.96251C6.56572 3.98438 6.4751 4.00001 6.38447 4.00001C6.20322 4.00001 6.15635 3.95626 6.15635 3.78126C6.15635 3.64063 6.2251 3.52813 6.4126 3.35938C6.63135 3.16251 6.84385 3.06251 7.05634 3.06251H7.21885L7.3001 2.88438C7.34072 2.78438 7.40009 2.68126 7.42822 2.65001C7.4751 2.59688 7.46885 2.59376 7.30947 2.59376C7.0376 2.59376 6.24072 2.68126 5.7251 2.76563C5.06572 2.87813 4.29385 3.07813 3.51572 3.34376C1.72822 3.95626 1.47822 4.02188 1.01572 3.99063C0.459471 3.95626 0.0813446 3.67501 0.0125942 3.25313C-0.0311546 2.97188 0.17197 2.69376 0.518845 2.56251C0.75947 2.47188 1.3751 2.43126 1.3751 2.50626C1.3751 2.54376 1.31572 2.56251 1.14072 2.59063C0.718845 2.65313 0.428221 2.80001 0.312595 3.00938C0.0782204 3.42188 0.687595 3.80938 1.3751 3.69063C1.65322 3.64063 1.85635 3.57188 2.79072 3.21563C3.96259 2.76563 4.56885 2.57501 5.3751 2.40938C6.72197 2.13126 8.31885 2.05313 9.42197 2.21563C10.4032 2.36251 11.2532 2.59063 13.422 3.29688C14.0032 3.48438 14.1595 3.52188 14.0001 3.43751C13.9001 3.38438 13.8126 3.21876 13.8126 3.08438C13.8126 2.91876 13.8813 2.77501 14.0438 2.60001C14.2032 2.42813 14.2126 2.40626 14.1282 2.40626C14.0938 2.40626 14.0313 2.36251 13.9907 2.30626C13.9251 2.22501 13.9188 2.19376 13.9438 2.12813C14.0251 1.90626 14.2626 1.78126 14.6376 1.75938C14.9407 1.74063 15.1188 1.78126 15.2595 1.90626L15.3626 1.99688L15.6938 1.82501C16.1001 1.61876 16.5751 1.45626 16.9688 1.39063C17.3313 1.33438 17.9595 1.33438 18.297 1.39376Z" fill="#FDC23E"/>
<path d="M35.3344 1.7688L35.5312 1.9438L35.3563 2.16568C34.9312 2.70943 34.8094 3.12505 34.6906 4.44693C34.6781 4.61568 34.6562 4.75943 34.65 4.7688C34.6406 4.77818 34.5031 4.75943 34.3438 4.7313L34.0562 4.67818L34.0781 4.40943C34.1562 3.35943 34.3375 2.67193 34.6719 2.15318C34.825 1.9188 35.0844 1.5938 35.1219 1.5938C35.1312 1.5938 35.2281 1.67505 35.3344 1.7688Z" fill="#FDC23E"/>
<path d="M35.5938 2.59692C36.6095 2.66567 37.7095 3.13754 38.3063 3.75629L38.4438 3.89692L38.2032 4.09379C37.9376 4.30942 37.9845 4.31254 37.7032 4.06567C37.297 3.70942 36.7095 3.39379 36.197 3.25942C35.9688 3.20004 35.7813 3.17504 35.4595 3.16567C35.2251 3.15629 35.0313 3.14379 35.0313 3.13754C35.0313 3.10629 35.2251 2.60629 35.2438 2.59379C35.2563 2.58442 35.4126 2.58442 35.5938 2.59692Z" fill="#FDC23E"/>
<path d="M34.2723 2.64375C34.2598 2.67812 34.2317 2.79375 34.2036 2.90625L34.1536 3.1125L33.9161 3.21875C33.4879 3.40937 33.1879 3.79062 33.0661 4.29062C32.9848 4.625 32.9942 5.50625 33.0848 5.86562C33.1004 5.9375 33.0942 5.9375 32.8348 5.9375C32.6067 5.9375 32.5661 5.92812 32.5504 5.88125C32.5004 5.7125 32.4629 5.12187 32.4754 4.69375C32.4942 4.1375 32.5598 3.8625 32.7661 3.51562C33.0192 3.0875 33.5911 2.71562 34.1692 2.60937C34.2754 2.5875 34.2879 2.59062 34.2723 2.64375Z" fill="#FDC23E"/>
<path d="M36.8284 3.70315L37.2034 3.8719L37.244 4.0844C37.2971 4.36565 37.2752 5.06877 37.2034 5.34377C36.944 6.3219 36.2377 6.89065 35.2002 6.9594L34.919 6.97815L34.8721 6.7094C34.819 6.40627 34.819 6.40627 35.0284 6.40627C35.1971 6.40627 35.5909 6.30002 35.7846 6.20002C36.144 6.01877 36.4315 5.65002 36.5502 5.21877C36.6409 4.90002 36.6252 4.23127 36.5221 3.84377C36.4784 3.68127 36.444 3.5469 36.4471 3.54377C36.4502 3.54065 36.6221 3.61252 36.8284 3.70315Z" fill="#FDC23E"/>
<path d="M39.2471 4.88125C39.4033 5.2125 39.5127 5.54688 39.5658 5.84375C39.6158 6.13125 39.6158 6.7 39.5627 6.95312C39.4002 7.74687 38.9315 8.59375 38.119 9.57187C37.9908 9.72812 37.969 9.775 37.969 9.89062C37.969 9.99062 37.9908 10.05 38.0471 10.1187C38.1846 10.2844 38.3283 10.3187 38.969 10.3406C39.5252 10.3594 39.5533 10.3625 39.694 10.4437C39.9377 10.5906 40.0252 10.7437 39.9846 10.9563C39.9658 11.0687 39.9627 11.0687 39.844 11.0531L39.7252 11.0375L39.7721 11.15C39.8502 11.3375 39.8783 11.5938 39.8408 11.775C39.7815 12.0656 39.5096 12.3438 39.2815 12.3438C39.044 12.3438 38.9565 12.15 38.9752 11.6656C38.9846 11.3562 38.9627 11.2688 38.9283 11.4812C38.8815 11.775 38.719 11.825 38.4846 11.6188C38.2315 11.3969 38.1971 11.2156 38.3283 10.8375C38.3721 10.7156 38.4065 10.6031 38.4065 10.5906C38.4065 10.5781 38.3596 10.5562 38.3033 10.5469C38.0721 10.4937 37.8377 10.3125 37.7783 10.1344L37.744 10.0312L37.3846 10.4719C36.194 11.9313 35.6908 12.8438 35.4658 13.9375C35.4065 14.2281 35.394 14.3937 35.394 14.8125C35.394 15.0969 35.4127 15.4344 35.4346 15.5625C35.6158 16.6312 36.0096 17.5687 36.7627 18.7312L36.9815 19.0719L36.8908 19.3312C36.8408 19.475 36.7908 19.5938 36.7815 19.5938C36.7721 19.5938 36.6596 19.4406 36.5283 19.2562C35.4658 17.7656 34.9252 16.475 34.8065 15.15C34.7158 14.125 34.9815 13.0281 35.5721 11.9844C35.8877 11.425 36.2815 10.8719 36.9658 10.0188C38.0377 8.69063 38.3658 8.225 38.6252 7.67812C38.8127 7.28125 38.894 7.04062 38.9408 6.7125C39.0096 6.2375 38.9283 5.7125 38.7127 5.24375L38.6158 5.03438L38.7221 4.94687C38.7783 4.9 38.8908 4.80625 38.9752 4.74062L39.1252 4.61875L39.2471 4.88125Z" fill="#FDC23E"/>
<path d="M33.4532 4.70937C34.0438 4.91562 35.0876 5.0625 35.9688 5.0625H36.3345L36.2813 5.30312L36.2282 5.54688L35.6376 5.54375C35.2657 5.54375 34.897 5.52187 34.6407 5.4875C34.2001 5.42812 33.5813 5.30625 33.3876 5.2375L33.2657 5.19687L33.2782 5.00312C33.2845 4.89687 33.297 4.775 33.3095 4.7375C33.3282 4.66875 33.3313 4.66562 33.4532 4.70937Z" fill="#FDC23E"/>
<path d="M34.4281 5.66566L34.625 5.69691V6.23441C34.625 7.99066 34.9812 8.94691 36.0219 9.99691L36.4375 10.4157L36.3281 10.575C36.1188 10.8719 36.1375 10.8594 36.0563 10.8032C36.0156 10.775 35.8687 10.65 35.725 10.5188C34.8844 9.75941 34.425 8.99066 34.2219 7.99378C34.1281 7.54691 34.0938 7.17503 34.0719 6.36566L34.0531 5.62503L34.1437 5.62816C34.1937 5.63128 34.3219 5.64691 34.4281 5.66566Z" fill="#FDC23E"/>
<path d="M32.8285 6.11562C33.0348 6.14062 33.591 6.25312 33.7441 6.29687L33.9066 6.34687V6.59374C33.9066 6.95312 33.9223 6.94062 33.5848 6.85624C33.1566 6.74687 32.7098 6.68749 32.3066 6.68749C31.5848 6.68749 31.116 6.89687 30.916 7.30624C30.741 7.66562 30.8316 8.16874 31.1191 8.40624C31.6473 8.84062 32.4285 8.45937 32.6223 7.67499C32.6441 7.59062 32.6598 7.39062 32.6598 7.22499V6.92812L32.9098 6.94687C33.0473 6.95624 33.1691 6.97187 33.1785 6.98124C33.191 6.99062 33.1973 7.16562 33.1973 7.36562C33.1973 7.65937 33.1816 7.78124 33.1254 7.95312C32.9098 8.63749 32.4254 9.09062 31.8004 9.19374C31.1098 9.30937 30.4066 8.84374 30.2316 8.15624C30.1629 7.88749 30.1848 7.45624 30.2785 7.22187C30.5129 6.64062 31.0629 6.24999 31.8191 6.12499C32.0066 6.09687 32.6254 6.09062 32.8285 6.11562Z" fill="#FDC23E"/>
<path d="M37.3629 11.1938C38.1567 12.0188 38.6129 12.975 38.7536 14.1063C38.8036 14.5282 38.7754 15.4063 38.6911 15.8907C38.4973 17.0063 38.1879 17.9344 37.3098 20.025C36.5848 21.75 36.3848 22.2969 36.2317 22.9594C36.0879 23.6 36.0942 24.3782 36.2504 25.125C36.4098 25.8844 36.6317 26.4532 37.2411 27.6719C37.8598 28.9063 38.0129 29.2782 38.1723 29.9438C38.4629 31.1657 38.2973 32.5532 37.6786 34.0969C37.5848 34.3282 37.3473 34.8657 37.1504 35.2969C36.9504 35.725 36.7567 36.175 36.7192 36.2938C36.5817 36.7094 36.6379 37.025 36.8879 37.2438C37.2442 37.5563 37.7192 37.2282 37.7192 36.6719C37.7192 36.5938 37.7317 36.5625 37.7598 36.5719C37.7848 36.5813 37.7973 36.6688 37.7973 36.8782C37.7942 37.1157 37.7817 37.1969 37.7286 37.2969C37.5536 37.6282 37.2254 37.7375 36.8879 37.5813C36.5161 37.4094 36.3317 36.9688 36.4067 36.4375C36.4567 36.0875 36.5598 35.7938 36.9723 34.8625C37.7223 33.1719 37.9348 32.3032 37.8973 31.0594C37.8817 30.4469 37.7973 29.9094 37.7379 30.0157C37.6661 30.1375 37.4192 30.3844 37.3067 30.4407C37.2348 30.4782 37.1879 30.525 37.1879 30.5594C37.1879 30.5907 37.2317 30.7407 37.2848 30.8938C37.4504 31.3625 37.4129 31.5438 37.1254 31.6657L36.9754 31.7282L37.0067 31.8407C37.1661 32.4157 36.5348 32.6563 36.1098 32.1813C35.9911 32.0532 35.8442 31.775 35.8442 31.6813C35.8442 31.6532 35.8067 31.5563 35.7598 31.4657C35.6004 31.1438 35.6411 30.8063 35.8692 30.5844C36.0223 30.4344 36.1129 30.4063 36.4192 30.4063C37.0286 30.4063 37.4879 30.15 37.6098 29.7375C37.6567 29.5875 37.6536 29.5813 37.5442 29.3C37.4067 28.9563 37.3754 28.8907 36.9036 28C36.4379 27.1157 36.2504 26.6969 36.0629 26.125C35.8098 25.35 35.6879 24.5969 35.6879 23.7844C35.6879 22.7157 35.9129 21.9532 36.9379 19.5157C37.8098 17.4469 38.0973 16.5313 38.2317 15.3938L38.2504 15.2375L38.1536 15.3844C37.5098 16.3594 35.7254 15.9188 35.7067 14.7844C35.7036 14.5063 35.7942 14.3657 36.0286 14.2969C36.1004 14.275 36.1004 14.2782 36.0786 14.425C36.0536 14.6157 36.0973 14.5782 36.1692 14.3563C36.3161 13.9 36.6098 13.6844 36.9817 13.7532C37.2754 13.8063 37.4067 13.9375 37.4067 14.175C37.4067 14.2719 37.3817 14.3157 37.2567 14.4375L37.1098 14.5875L37.2098 14.5844C37.3817 14.5782 37.5004 14.75 37.5004 15.0063C37.5004 15.1282 37.4848 15.1532 37.3098 15.3188C37.1004 15.5219 37.0848 15.5938 37.2598 15.5938C37.4411 15.5938 37.6848 15.5032 37.8161 15.3844C38.1692 15.0625 38.2973 14.3157 38.1129 13.6438C37.9036 12.8688 37.5536 12.2407 36.9754 11.5938L36.7848 11.3813L36.9817 11.2063C37.0911 11.1094 37.1879 11.0313 37.1942 11.0313C37.2004 11.0313 37.2754 11.1063 37.3629 11.1938ZM36.9192 31.5313L36.9629 31.6719L36.9661 31.5282C36.9692 31.3813 36.9473 31.3219 36.9004 31.3688C36.8879 31.3813 36.8942 31.4563 36.9192 31.5313Z" fill="#FDC23E"/>
<path d="M37.722 19.9125C37.8626 20.1406 38.4407 21.3469 38.5501 21.6406C38.7438 22.1688 38.7907 22.4594 38.7938 23.1719C38.797 23.9969 38.7313 24.2656 38.4001 24.7719L38.2751 24.9688L38.3282 25.1688C38.4845 25.7375 38.2282 26.1406 37.6876 26.1813C37.572 26.1875 37.4251 26.1875 37.3626 26.175C37.2251 26.15 37.0782 26.0281 37.0001 25.8781C36.9563 25.7906 36.9126 25.7531 36.8188 25.725C36.6813 25.6844 36.4251 25.4719 36.3626 25.3469C36.1751 24.975 36.4282 24.4813 36.772 24.5469C36.8407 24.5594 36.9282 24.6156 37.0126 24.7L37.147 24.8344L37.2063 24.7281C37.3501 24.4594 37.7688 24.4563 38.1001 24.7188L38.2157 24.8125L38.3063 24.5688C38.4782 24.125 38.4845 24.0875 38.4813 23.4219C38.4782 23.0781 38.4626 22.7063 38.4407 22.5938C38.3376 22.0344 37.9782 21.2063 37.572 20.6L37.3751 20.3094L37.5001 20.0625C37.5688 19.925 37.6313 19.8125 37.6407 19.8125C37.6501 19.8125 37.6845 19.8594 37.722 19.9125ZM37.2813 25.0125C37.2813 25.0188 37.3063 25.0438 37.3345 25.0656C37.3845 25.1063 37.3876 25.1031 37.347 25.0531C37.3063 25.0031 37.2813 24.9875 37.2813 25.0125Z" fill="#FDC23E"/>
</g>
<defs>
<clipPath id="clip0_646_1503">
<rect width="40" height="37.6562" fill="white" transform="matrix(-1 0 0 1 40 0)"/>
</clipPath>
</defs>
</svg>
