<svg width="100" height="60" viewBox="0 0 100 60" fill="none" xmlns="http://www.w3.org/2000/svg">
<path d="M48.7189 12.1366C47.0627 12.6834 46.0939 14.4022 45.9611 17.0272C45.9221 17.7772 45.9455 17.9959 46.1174 18.7069C46.3517 19.66 46.758 20.824 47.6799 23.16C48.5236 25.3084 48.6721 25.785 49.0158 27.4959C49.383 29.3319 49.8439 31.9256 49.8439 32.1287C49.8439 32.2225 49.8752 32.3084 49.9064 32.3319C49.9455 32.3553 50.1017 31.6053 50.2658 30.6756C51.0002 26.449 51.1721 25.7694 52.2892 22.7694C52.8908 21.1287 53.3752 19.66 53.5705 18.8631C53.7736 18.0272 53.7502 16.3631 53.5314 15.3084C53.2033 13.7616 52.4064 12.6287 51.3517 12.2147C50.7033 11.9647 49.3674 11.9256 48.7189 12.1366Z" fill="#FDC23E"/>
<path d="M36.5077 19.4022C34.7655 20.0037 34.1874 21.8943 35.3124 23.3162C35.8592 24.0037 36.9999 24.5897 39.4139 25.4256C41.0077 25.9725 41.8983 26.3943 42.8592 27.035C43.617 27.535 44.7342 28.5662 45.328 29.3162L45.7342 29.824L45.8436 29.5584C46.2186 28.6522 45.4217 26.2693 44.0311 24.1365C43.0858 22.6912 41.8436 21.3006 40.742 20.4647C40.1952 20.0506 39.0311 19.4647 38.4999 19.3397C37.9452 19.2068 36.9764 19.2381 36.5077 19.4022Z" fill="#FDC23E"/>
<path d="M60.6482 19.4413C59.531 19.8085 58.4529 20.5585 57.2888 21.7772C55.5076 23.6366 53.9373 26.4256 53.5857 28.3397C53.4998 28.8319 53.5388 29.5116 53.6716 29.7225C53.7341 29.8241 53.7654 29.8085 53.8826 29.6444C54.2029 29.1835 54.9607 28.371 55.4295 27.9725C56.5545 27.0194 57.3123 26.6131 59.6091 25.7069C62.5388 24.5585 63.156 24.2538 63.8904 23.5897C64.4685 23.0663 64.7263 22.5038 64.7263 21.7538C64.7263 21.3006 64.6873 21.0819 64.5466 20.8085C64.2654 20.2303 63.867 19.8319 63.2966 19.5506C62.8279 19.3163 62.7029 19.2928 61.992 19.2772C61.3435 19.2538 61.117 19.285 60.6482 19.4413Z" fill="#FDC23E"/>
<path d="M20.0781 21.1288C18.2188 21.3709 16.5859 22.1444 15.5938 23.2616C14.4766 24.5038 13.9375 26.3788 14.1406 28.2616C14.4297 30.9022 15.9219 32.6991 18.4766 33.4959C19.4531 33.8006 20.1797 33.8866 21.3438 33.8397C22.4531 33.7928 23.0312 33.6756 24.6328 33.1834C25.2578 32.9881 25.5781 32.9256 25.6328 32.9803C25.75 33.0975 20.0312 38.1756 17.5703 40.1288C13.7891 43.1366 11.5469 44.2303 8.64062 44.4881C6.33594 44.6991 4.4375 44.1522 3.19531 42.9256C2.24219 41.9881 1.91406 41.1834 1.91406 39.8006C1.91406 38.7694 2.03906 38.285 2.47656 37.6366C2.77344 37.1991 3.05469 36.9491 3.57031 36.6834C4.32031 36.3084 5.72656 36.16 6.3125 36.41C6.625 36.535 7.03125 36.8866 7.03125 37.0194C7.03125 37.0663 6.85156 37.1991 6.64062 37.3163C6.125 37.6053 5.91406 38.0116 5.90625 38.7069C5.89844 39.5428 6.25 40.035 7.15625 40.4413C7.67188 40.6756 8.6875 40.6913 9.25781 40.4725C10.1562 40.1288 10.6797 39.5741 10.9531 38.6756C11.4141 37.16 10.5938 35.6131 8.89062 34.8006C8.07031 34.4022 7.36719 34.2538 6.32031 34.2538C3.22656 34.2538 0.96875 35.5975 0.203125 37.9022C0.015625 38.4569 0 38.6209 0 39.7694C0 40.8788 0.0234375 41.0819 0.1875 41.5663C0.96875 43.8788 2.71875 45.3241 5.39062 45.8553C6.25781 46.0272 8.01562 46.0897 8.98438 45.9803C11.8516 45.6522 14.4844 44.4725 17.6172 42.1053C19.0312 41.035 19.6172 40.535 22.5391 37.8866C23.7891 36.7538 25.0078 35.66 25.2578 35.4569C25.875 34.9491 25.9453 35.0428 25.6328 35.9647C25.1094 37.5194 24.9688 39.5663 25.2969 40.8163C25.7812 42.6366 26.9375 44.1834 28.4453 45.0272C29.7656 45.7616 31.6641 46.0506 33.4375 45.7772C34.375 45.6366 34.8906 45.4803 35.6094 45.1288C36.8281 44.5272 37.7344 43.6366 38.2891 42.4959C38.7734 41.4959 38.8359 40.8553 38.5391 39.8084C38.3125 38.9803 37.9062 38.3163 37.2344 37.6522C36.2578 36.6756 35.2891 36.285 33.8672 36.285C32.3047 36.285 31.1484 36.8397 30.5859 37.8553C30.375 38.2381 30.3516 38.3475 30.3516 38.9803C30.3516 39.5975 30.3828 39.7381 30.5703 40.1366C30.9297 40.8631 31.4141 41.1288 32.3828 41.1288C33.1406 41.1288 33.6875 40.8631 34.0156 40.3241C34.2109 40.0038 34.25 39.8475 34.2812 39.2928C34.3047 38.9178 34.2812 38.535 34.2266 38.3866L34.1406 38.1366L34.5312 38.1756C35.0781 38.2303 35.8672 38.6366 36.2422 39.0663C37.1172 40.0663 37.1328 41.6991 36.2656 42.785C35.6875 43.5194 34.6875 44.1209 33.6094 44.3866C32.8594 44.5741 31.3984 44.5506 30.5859 44.3397C28.3359 43.7616 27.1406 42.2303 26.9219 39.6444C26.8672 39.0116 26.9844 37.7225 27.1562 37.0116C27.8281 34.3397 29.7344 32.5741 32.8438 31.7538C34.3281 31.3631 35.3125 31.2459 37.2266 31.2538C38.7891 31.2538 39.0312 31.2694 39.9219 31.4647C44.9531 32.535 47.875 35.3163 48.2891 39.4178C48.4844 41.41 47.9844 43.1756 46.9844 44.0038C45.8047 44.9881 43.6406 45.16 42.5938 44.3553C42 43.9022 41.7734 42.8241 42.1328 42.1834C42.3203 41.8553 42.9609 41.3631 43.2109 41.3631C43.3203 41.3631 43.3594 41.4178 43.3594 41.5741C43.3594 41.9491 43.7109 42.4256 44.1016 42.5741C44.75 42.8241 45.3906 42.5272 45.7422 41.7928C45.9219 41.4334 45.9531 41.2928 45.9062 40.9959C45.8125 40.285 45.2578 39.66 44.5 39.41C44.3125 39.3475 43.9531 39.3241 43.5547 39.3475C41.9531 39.4334 40.4922 40.7225 40.3438 42.1913C40.1484 44.0506 41.2891 45.535 43.2188 45.9413C43.8984 46.0897 45.3047 46.0428 46.0938 45.8553C47.7656 45.4491 49.0859 44.285 49.6562 42.7147C49.7734 42.3944 49.9062 42.1522 49.9453 42.1678C49.9922 42.1834 50.0859 42.3709 50.1641 42.5975C50.5859 43.8397 51.4688 44.8709 52.5859 45.4178C53.5859 45.9022 54.0781 46.0116 55.3516 46.0116C56.1797 46.0116 56.5547 45.9725 56.9062 45.8631C58.7422 45.3084 59.625 44.1131 59.5156 42.3319C59.4688 41.5663 59.25 41.0741 58.7109 40.535C57.8516 39.6756 56.375 39.2772 55.2578 39.6053C55.0312 39.6756 54.7188 39.8553 54.5078 40.0428C53.8125 40.6444 53.7656 41.4725 54.3828 42.1756C54.9297 42.7928 55.5547 42.8397 56.0938 42.3006C56.2734 42.1209 56.4297 41.8631 56.4844 41.6834C56.5781 41.3163 56.6172 41.3084 57.0156 41.5116C57.5859 41.8084 57.9219 42.3475 57.9219 43.0038C57.9297 43.8553 57.2969 44.5194 56.25 44.7538C54.4531 45.1678 52.7891 44.4334 52.0625 42.9022C51.7031 42.1366 51.5625 41.4334 51.5625 40.3006C51.5625 37.9256 52.3125 36.0116 53.875 34.4569C55.3047 33.0272 57.5234 31.9256 60.0156 31.4256C60.7812 31.2694 61.125 31.2459 62.5781 31.2538C66.4922 31.2616 69.2734 32.1678 71.0312 34.0038C72.3984 35.4413 73.0781 37.4413 72.9375 39.6834C72.8516 41.1913 72.4922 42.1288 71.6719 43.0038C70.8359 43.8866 69.7891 44.3397 68.2188 44.4959C66.0703 44.7147 63.9531 43.7303 63.2188 42.16C63.0312 41.7616 63.0078 41.6209 63.0078 40.8944C63.0078 40.1756 63.0312 40.0194 63.2188 39.6366C63.5938 38.8319 64.3594 38.2616 65.1875 38.1756L65.5625 38.1366L65.5078 38.4647C65.4453 38.8631 65.5938 39.8241 65.7891 40.1991C65.9766 40.5741 66.4141 40.9413 66.7734 41.0428C67.1875 41.16 68.0078 41.1522 68.3047 41.0272C69.0391 40.7147 69.4609 40.0272 69.5156 39.0428C69.5469 38.4647 69.5312 38.3553 69.3438 37.9725C68.8203 36.9022 67.5859 36.285 65.9766 36.285C65.1406 36.285 64.5391 36.4256 63.7891 36.785C61.875 37.7225 60.7344 40.1366 61.3281 41.9959C61.9141 43.8163 63.6562 45.2225 65.9375 45.7147C66.9141 45.9256 68.7812 45.9022 69.7109 45.6756C72.1328 45.0741 73.8359 43.4022 74.5391 40.9334C74.9609 39.4491 74.7656 37.3709 74.0469 35.7928C73.5625 34.7381 73.8828 34.9256 76.25 37.0663C79.8438 40.3163 81.1953 41.4569 82.8125 42.6131C85.2109 44.3241 87.5859 45.4178 89.8828 45.8709C90.8672 46.0663 93.2891 46.0663 94.2188 45.8709C96.8047 45.3319 98.4609 44.1366 99.4062 42.1366C99.8281 41.2538 99.9609 40.6678 99.9531 39.7225C99.9453 37.3397 98.625 35.5038 96.3516 34.7147C95.125 34.2928 93.0938 34.1209 92.0703 34.3631C89.9766 34.8553 88.5547 36.5584 88.8203 38.2381C88.9844 39.2459 89.5391 39.9881 90.4531 40.41C90.8281 40.5819 91.0078 40.6209 91.6016 40.6209C92.4922 40.6209 93.0156 40.4491 93.4766 40.0038C94.3047 39.2069 94.1172 37.8084 93.1094 37.2928C92.9453 37.2069 92.8125 37.1131 92.8125 37.0741C92.8125 36.9256 93.1484 36.5975 93.4609 36.4491C94.1172 36.1288 95.5078 36.2772 96.4219 36.7694C97.4609 37.3241 97.9688 38.3163 97.9688 39.8006C97.9688 41.0584 97.5859 42.0506 96.7734 42.8631C95.6406 43.9959 94.1953 44.5038 92.1094 44.5038C88.2031 44.5038 85.3672 42.9491 78.4766 36.9959C75.0938 34.0819 73.9766 33.0584 74.0547 32.9803C74.1094 32.9256 74.4922 33.0038 75.2891 33.2225C77.75 33.9178 78.8438 34.0194 80.4141 33.6991C81.9922 33.3788 83.0547 32.8397 84.0625 31.8319C84.8281 31.0741 85.2812 30.2928 85.5625 29.2772C85.7891 28.4491 85.8047 26.5897 85.5938 25.7772C85.2578 24.4569 84.4375 23.2303 83.4062 22.5038C81.3906 21.0741 78.3281 20.66 76.0938 21.5272C74.0391 22.3163 72.5781 24.2303 72.7812 25.8475C72.9688 27.3319 73.9375 28.2069 75.4688 28.3006C76.4062 28.3553 76.9453 28.1913 77.4297 27.7069C77.8516 27.2772 78.0078 26.8475 77.9453 26.2381C77.8438 25.2225 77.1797 24.66 76.0625 24.6209C75.7969 24.6131 75.625 24.5663 75.625 24.5194C75.625 24.3866 76.1562 23.6991 76.4609 23.4413C77.5469 22.5194 79.9531 22.5741 81.7031 23.5584C82.3594 23.9256 83.2109 24.8241 83.5078 25.4569C84.4062 27.3241 83.9453 29.7928 82.4766 31.0897C82.0078 31.5038 81.0234 32.0116 80.3516 32.1834C78.9219 32.5584 77.0625 32.3397 74.2969 31.4803C72.1016 30.7928 68.3672 30.0663 65.3125 29.7147C63.3984 29.5038 61.3438 29.4803 60.1406 29.6756C56.4297 30.2616 53.0625 32.1366 51.3281 34.5741C50.9531 35.1131 50.3359 36.2694 50.0938 36.91L49.9844 37.1834L49.9062 36.9881C49.2266 35.4022 48.3594 34.0819 47.375 33.16C44.5625 30.535 40.3125 29.0975 36.2656 29.3944C33.2188 29.6288 28.6094 30.5272 25.4688 31.5116C23.4844 32.1288 21.7969 32.4256 20.6641 32.3553C19.2266 32.2616 18.1875 31.8163 17.2578 30.8944C16.3047 29.9491 15.9297 28.9959 15.9297 27.535C15.9219 26.1366 16.2891 25.2303 17.2266 24.2928C18.1406 23.3709 19.3281 22.8709 20.75 22.7928C22.2578 22.7069 23.3438 23.1444 24 24.0975C24.1562 24.3319 24.2969 24.5428 24.2969 24.5663C24.2969 24.5897 24.0625 24.6209 23.7734 24.6288C22.7812 24.6522 22.1484 25.1366 21.9531 26.0116C21.6641 27.3241 22.6016 28.3163 24.1406 28.3163C25.5 28.3163 26.4844 27.7225 26.8906 26.6522C27.7109 24.4959 25.9375 22.0663 23 21.3163C22.1641 21.1053 20.8828 21.0194 20.0781 21.1288Z" fill="#FDC23E"/>
</svg>
