<svg width="50" height="45" viewBox="0 0 50 45" fill="none" xmlns="http://www.w3.org/2000/svg">
<g clip-path="url(#clip0_646_1267)">
<path d="M18.4374 0.0273438C19.5116 0.191406 20.0897 0.957031 20.0272 2.12891C19.9959 2.64453 19.8514 3.19531 19.6131 3.69531C19.5077 3.91797 19.4256 4.10156 19.4334 4.10156C19.4374 4.10156 19.5663 4.05078 19.7108 3.98828C22.2811 2.89453 25.1014 2.96484 27.6014 4.18359C28.1444 4.44531 28.9452 4.94922 29.3475 5.28125C31.3319 6.90625 32.617 9.08594 33.1405 11.7188C33.3241 12.6406 33.3788 14.1758 33.2616 15.168C32.8749 18.4688 31.0077 21.207 28.4452 22.2266C26.8084 22.8789 25.0897 22.832 23.5194 22.0859C21.8788 21.3125 20.5975 19.8047 19.9999 17.9492C19.578 16.6445 19.5272 15.0664 19.867 13.7617C20.1561 12.6406 20.7147 11.6562 21.4686 10.9336C22.0624 10.3672 22.6874 10.0117 23.4569 9.79688C23.8866 9.67578 24.7967 9.65625 25.2772 9.75781C26.0584 9.91797 26.7616 10.2969 27.3397 10.8594C27.785 11.2969 28.0428 11.6445 28.3006 12.168C28.9061 13.3906 28.9295 14.7031 28.3592 15.8828C28.1327 16.3516 27.1913 17.6328 27.1209 17.5625C27.0858 17.5312 27.2772 17.2031 27.6678 16.6211C28.2499 15.7539 28.4334 15.3008 28.5116 14.5391C28.6756 12.9609 27.6952 11.2734 26.1991 10.5625C24.8006 9.90234 23.1444 10.1875 21.9725 11.2969C21.7733 11.4844 21.5116 11.7656 21.3944 11.9219C20.1405 13.5625 19.8788 16.0664 20.742 18.2227C21.0545 19.0078 21.4999 19.6641 22.1678 20.332C23.0311 21.1992 23.8866 21.668 25.0506 21.9219C25.6288 22.0469 26.6795 22.0469 27.2655 21.918C28.0233 21.7539 28.8163 21.4023 29.4725 20.9414C29.8983 20.6445 30.6131 19.9414 30.953 19.4922C32.0936 17.9766 32.6952 16.0742 32.6952 13.9883C32.6913 9.75391 30.1249 5.98438 26.4178 4.76953C25.4256 4.44141 24.7655 4.33594 23.7303 4.33594C22.4686 4.33594 21.4334 4.54688 20.285 5.04297C18.6053 5.76172 17.0584 7.08203 15.8905 8.78906C14.2225 11.2227 13.3749 14.5742 13.5936 17.8594C13.8436 21.5977 15.3163 24.9766 17.8084 27.5508C18.3788 28.1367 18.7342 28.4336 19.4139 28.8867C21.8006 30.4727 25.6249 31.9375 29.3983 32.7109C31.6405 33.1719 33.6483 33.3906 35.7616 33.4102C36.8592 33.418 36.7928 33.4336 37.3045 33.0859C38.41 32.3359 39.0077 30.9102 38.7733 29.5781C38.4569 27.7734 36.9374 26.8125 35.5272 27.5273C35.0506 27.7695 34.5975 28.4023 34.4725 29.0039C34.2772 29.9336 34.66 30.8633 35.3827 31.2188C35.535 31.293 35.6288 31.3086 35.9374 31.3086C36.2616 31.3086 36.3319 31.293 36.5038 31.2031C36.7499 31.0742 37.0467 30.7617 37.1522 30.5195C37.1952 30.4219 37.2499 30.2148 37.2733 30.0625C37.328 29.707 37.2499 29.3711 37.0428 29.0703C36.5038 28.2852 35.3905 28.6367 35.3905 29.5938C35.3905 29.8281 35.4374 29.9648 35.6405 30.293L35.7108 30.4102L35.6053 30.293C35.3241 29.9805 35.2538 29.5078 35.4256 29.1211C35.5389 28.8672 35.6756 28.7227 35.9178 28.6094C36.6952 28.2422 37.4803 28.9766 37.41 30C37.3749 30.5352 37.1327 30.9688 36.7186 31.2422C36.1561 31.6172 35.4334 31.5508 34.9256 31.0742C34.6678 30.832 34.5194 30.5977 34.3905 30.2148C34.3006 29.9531 34.285 29.8359 34.2811 29.4727C34.2772 28.9883 34.3631 28.6445 34.5819 28.2227C34.7342 27.9336 35.2225 27.4375 35.4959 27.293C35.7303 27.168 36.2303 27.0312 36.4608 27.0312C36.6131 27.0273 36.617 27.0273 36.5428 26.9688C36.2303 26.7383 36.0545 26.4688 36.0545 26.2266C36.0545 26.1211 36.0858 26.0547 36.1834 25.957C36.3983 25.7422 36.7928 25.6836 36.7459 25.875C36.7342 25.9219 36.7069 26.0273 36.6834 26.1094C36.6366 26.3047 36.6913 26.6289 36.8163 26.8789C36.8983 27.0391 36.9295 27.0664 37.0936 27.1055C38.3749 27.4297 39.2538 28.9492 39.0975 30.5703C39.0038 31.5742 38.578 32.4297 37.828 33.1172L37.5194 33.4023L37.8514 33.375C40.6092 33.1797 42.9061 32.6875 45.1366 31.8086C45.4374 31.6914 46.0858 31.3945 46.5819 31.1523C47.7655 30.5703 48.5702 30.082 49.5624 29.3477C50.0819 28.9648 50.1561 29.0078 49.6561 29.4062C48.0741 30.6719 45.9452 31.8086 43.8045 32.5391C41.617 33.2852 39.492 33.6992 36.7577 33.9141C35.9139 33.9766 33.0038 33.9766 32.1483 33.9141C30.4217 33.7812 28.5428 33.5352 27.41 33.2969L27.1327 33.2383L26.9217 33.4453C26.1483 34.207 25.7655 35.418 25.8905 36.7266C26.0077 37.9766 26.5077 39.0469 27.3827 39.9219C29.2772 41.8242 32.0545 41.8086 33.1678 39.8945C33.6366 39.082 33.6483 37.9609 33.1952 37.0508C32.5663 35.7969 31.1834 35.0234 30.0467 35.293C29.3631 35.4531 28.867 35.918 28.6678 36.5703C28.5545 36.9453 28.578 37.4805 28.7264 37.8672C29.2733 39.3008 31.0858 39.7734 31.7381 38.6523C32.0428 38.1289 31.9061 37.4414 31.4022 36.9766C31.1639 36.7539 31.0038 36.6875 30.4686 36.5703C30.3124 36.5352 30.3045 36.5312 30.4178 36.5273C30.6053 36.5195 30.9334 36.5977 31.1561 36.7031C31.4217 36.8281 31.7303 37.1641 31.8866 37.4883C31.9999 37.7266 32.0116 37.7891 32.0116 38.1055C32.0116 38.4023 31.9959 38.4922 31.9061 38.6758C31.7147 39.0938 31.3436 39.3672 30.8475 39.457C29.9569 39.6211 28.867 38.8828 28.5155 37.875C28.3592 37.4414 28.3436 36.8711 28.4725 36.457C28.5506 36.1992 28.7772 35.832 28.9881 35.625C29.6639 34.9609 30.7655 34.8516 31.7772 35.3477C32.8553 35.8789 33.6327 36.9727 33.7928 38.1836C33.992 39.7148 33.0506 41.1719 31.5819 41.5938C30.8788 41.7969 30.2811 41.8047 29.4999 41.6172C28.0741 41.2734 26.6834 40.1172 25.9569 38.6719C25.5624 37.8828 25.3827 37.1211 25.3788 36.2109C25.3788 34.9766 25.6639 34.0703 26.3006 33.3086C26.3866 33.207 26.4491 33.1172 26.4413 33.1094C26.4334 33.1016 26.1874 33.0391 25.8983 32.9727C22.9217 32.2773 20.16 31.1914 18.3319 30C18.0858 29.8359 18.0077 29.8086 17.7108 29.7656C17.2147 29.6953 16.1444 29.7344 15.6327 29.8398C14.4022 30.0977 13.3397 30.5703 12.4022 31.2695C11.9491 31.6094 11.2303 32.3398 10.867 32.8281C10.1131 33.8477 9.60532 35.0234 9.39048 36.25C9.2811 36.8711 9.28891 37.9609 9.4061 38.5469C9.72641 40.1328 10.5936 41.3438 11.8944 42.0039C12.2655 42.1914 12.7967 42.3633 13.2069 42.4219C13.6092 42.4805 14.3475 42.4531 14.7459 42.3672C15.8475 42.1211 16.8866 41.4492 17.5819 40.5234C18.703 39.0312 18.9491 37.2109 18.2186 35.8164C17.8397 35.0977 17.1522 34.5508 16.367 34.3516C16.0233 34.2617 15.3749 34.2617 15.0194 34.3516C14.3983 34.5078 13.742 34.9219 13.2928 35.4414C12.6444 36.1953 12.3514 37.3203 12.5741 38.1992C12.8358 39.2383 13.7303 39.8789 14.7108 39.7383C15.6366 39.6055 16.4178 38.793 16.5428 37.8281C16.5663 37.6562 16.5272 37.1328 16.4608 36.7656C16.4452 36.6953 16.453 36.6406 16.4764 36.6406C16.4959 36.6406 16.5233 36.707 16.5389 36.7852C16.5506 36.8672 16.5897 37.082 16.6209 37.2656C16.8241 38.3867 16.0663 39.5547 14.9139 39.9102C14.5819 40.0156 14.0311 39.9961 13.6756 39.8711C12.703 39.5273 12.1327 38.5664 12.1991 37.3828C12.3084 35.4336 14.0428 33.8359 15.91 33.957C18.2225 34.1094 19.5155 36.5273 18.6834 39.1406C18.5428 39.5742 18.1913 40.2695 17.9061 40.6719C17.5858 41.1211 16.9608 41.7344 16.5233 42.0273C15.5819 42.6562 14.703 42.9375 13.6913 42.9375C12.8475 42.9375 12.203 42.7852 11.4842 42.418C10.2264 41.7734 9.31235 40.6055 8.90219 39.1094L8.81626 38.7891L8.74204 38.9922C8.64829 39.2656 8.41782 39.5977 8.21469 39.75C8.0311 39.8906 7.78501 39.9492 7.56235 39.9062C7.23813 39.8438 6.7811 39.3984 6.80454 39.1641C6.81626 39.043 6.81626 39.043 7.10532 39.0156C7.47641 38.9844 7.86313 38.7969 8.20688 38.4805C8.66391 38.0625 8.66391 38.0625 8.68735 37.2266C8.71079 36.2852 8.82798 35.6172 9.10532 34.8008C9.98813 32.1992 11.9725 30.1992 14.492 29.3594C15.285 29.0938 16.2303 28.9062 16.7577 28.9062C16.8866 28.9062 16.992 28.8945 16.992 28.8828C16.992 28.8711 16.8319 28.6875 16.6366 28.4766C13.0311 24.5781 11.5038 18.832 12.6366 13.4375C13.117 11.1641 14.0975 8.98828 15.367 7.41016C15.6483 7.05469 15.6834 6.91016 15.6795 6.09375C15.6756 5.51172 15.6678 5.41406 15.5702 5.10156C15.3983 4.52734 15.2538 4.27344 14.9139 3.94141C14.5702 3.60547 14.535 3.49609 14.7147 3.36719C15.0038 3.16406 15.7264 3.08984 16.0936 3.22266C16.7069 3.44141 16.9647 3.84375 16.9647 4.57031C16.9647 5.01172 16.8827 5.36719 16.6834 5.78906L16.5389 6.08594L16.6639 5.98438C17.3749 5.38281 17.6053 5.19922 17.8944 5L18.2303 4.76953L18.2538 4.45312C18.2928 3.83594 18.1756 3 17.9608 2.38672C17.7342 1.75 17.3905 1.25781 16.867 0.839844C16.6874 0.691406 16.66 0.597656 16.7538 0.445312C16.9374 0.144531 17.8045 -0.0703125 18.4374 0.0273438Z" fill="#E68200"/>
<path d="M13.5468 8.23054C14.082 8.49226 13.8866 9.33992 13.289 9.34773C12.9296 9.35164 12.6796 9.10554 12.6796 8.74226C12.6796 8.31258 13.1484 8.03523 13.5468 8.23054Z" fill="#E68200"/>
<path d="M12.3438 9.84771C12.5196 9.88678 12.7735 10.1485 12.7774 10.3008C12.7852 10.543 12.7618 10.6485 12.6719 10.7735C12.3204 11.2344 11.6016 11.004 11.6016 10.4297C11.6016 10.043 11.9532 9.76568 12.3438 9.84771Z" fill="#E68200"/>
<path d="M12.1873 11.961C12.5388 12.1407 12.6326 12.5821 12.3787 12.8712C12.2302 13.0352 12.0701 13.1016 11.8591 13.0782C11.1638 13.0001 11.1599 11.9962 11.8552 11.8946C11.9724 11.8751 12.0544 11.8907 12.1873 11.961Z" fill="#E68200"/>
<path d="M3.71484 12.8047C4.26172 12.9883 4.83203 13.3516 5.26172 13.8008C5.92578 14.4922 6.42187 15.3828 7.46094 17.7344C8.49609 20.0859 9.03906 21.0391 9.74219 21.7422C10.1914 22.1914 10.5195 22.3828 10.9961 22.4766L11.2695 22.5312L10.9766 22.543C8.79687 22.6289 5.35156 21.7969 3.45703 20.7305C2.96484 20.4531 2.23437 19.8906 1.79687 19.4531C0.14453 17.8047 -0.0859385 16.0234 1.14062 14.3281C1.72266 13.5234 2.15234 13.1055 2.61719 12.8828C2.94531 12.7227 3.37891 12.6953 3.71484 12.8047Z" fill="#E68200"/>
<path d="M25.4883 13.715C25.9688 13.7853 26.2383 13.9298 26.375 14.1915C26.4531 14.336 26.4648 14.4103 26.4648 14.8243C26.4609 15.2618 26.4531 15.3126 26.3398 15.5782C26.1797 15.9376 25.8906 16.3829 25.3125 17.1485C24.7539 17.8946 24.5586 18.1798 24.4062 18.4845C24.1914 18.9181 24.1289 19.2735 24.2188 19.5157C24.2852 19.6915 24.2305 19.6681 24.1016 19.4689C23.7461 18.9064 23.3125 17.8165 23.1094 16.961C22.9766 16.4064 22.9414 16.0275 22.9766 15.5235C23.0508 14.4454 23.4961 13.8439 24.3242 13.711C24.5938 13.6642 25.1641 13.6681 25.4883 13.715Z" fill="#E68200"/>
<path d="M0.648143 18.9688C0.917675 19.1016 0.972362 19.4649 0.757518 19.6915C0.382518 20.0821 -0.203419 19.6133 0.0778309 19.1485C0.15205 19.0274 0.355175 18.9063 0.476268 18.9063C0.503612 18.9063 0.581737 18.9336 0.648143 18.9688Z" fill="#E68200"/>
<path d="M1.59373 20.4454C1.90623 20.6173 1.91014 21.0821 1.60154 21.2657C1.41795 21.3712 1.23045 21.3478 1.06248 21.1954C0.929667 21.0743 0.917948 21.0431 0.917948 20.8595C0.917948 20.6759 0.929667 20.6446 1.06248 20.5235C1.22264 20.379 1.42185 20.3478 1.59373 20.4454Z" fill="#E68200"/>
<path d="M17.8125 20.9571C17.8125 21.1407 17.9883 21.4688 18.2109 21.7032C18.7148 22.2383 19.4648 22.5977 21.2695 23.1641C22.7109 23.6172 23.1484 23.7774 23.75 24.0703C24.2852 24.3321 24.3359 24.3672 24.6719 24.7071C25.1328 25.1719 25.332 25.543 25.332 25.9375C25.332 26.1602 25.3086 26.2383 25.1797 26.5078C25.0508 26.7696 24.9492 26.8907 24.5352 27.3086C24.1133 27.7305 23.9961 27.8243 23.7227 27.961C23.3086 28.1641 23.0469 28.2188 22.5586 28.1914C22.2695 28.1797 22.0937 28.1485 21.8906 28.0703C20.8945 27.7032 19.9609 26.8243 19.1953 25.5391C18.2578 23.961 17.6445 22.1875 17.707 21.2344C17.7187 21.0664 17.7461 20.9102 17.7695 20.8868C17.8008 20.8555 17.8125 20.875 17.8125 20.9571Z" fill="#E68200"/>
<path d="M3.20674 21.1055C3.39424 21.2305 3.47237 21.461 3.39424 21.6641C3.26143 22.0157 2.84346 22.0977 2.58955 21.8203C2.20284 21.3985 2.73409 20.7852 3.20674 21.1055Z" fill="#E68200"/>
<path d="M5.93359 23.9102C6.69531 24.0587 7.52344 24.4923 9.48047 25.7735C11.0586 26.8087 11.7695 27.1876 12.5312 27.4063C12.8477 27.4962 12.9492 27.5079 13.293 27.4923C13.5977 27.4806 13.7383 27.4571 13.8867 27.3907C14.0703 27.3087 14.0781 27.3048 14.0039 27.379C13.75 27.6329 12.5508 28.2657 11.6797 28.6056C10.125 29.2188 8.69531 29.5431 7.59765 29.5391C5.5039 29.5352 4.07422 28.754 3.60156 27.3634C3.5 27.0626 3.49609 27.0196 3.49609 26.2696C3.5 25.6016 3.51172 25.4376 3.58593 25.1485C3.77343 24.3868 4.07812 24.0587 4.72265 23.922C5.0039 23.8634 5.66015 23.8556 5.93359 23.9102Z" fill="#E68200"/>
<path d="M39.2384 27.0782C39.4806 27.211 39.5274 27.5079 39.3399 27.6993C39.0274 28.0079 38.504 27.6133 38.711 27.2227C38.797 27.0665 39.0743 26.9883 39.2384 27.0782Z" fill="#E68200"/>
<path d="M40.1989 28.2774C40.3942 28.4766 40.32 28.8204 40.0622 28.9063C39.8864 28.961 39.7497 28.9219 39.6286 28.7813C39.4138 28.5235 39.5817 28.1641 39.9216 28.1641C40.0505 28.1641 40.1091 28.1876 40.1989 28.2774Z" fill="#E68200"/>
<path d="M40.1014 29.6641C40.4998 29.8398 40.3905 30.3906 39.9608 30.3906C39.535 30.3906 39.4139 29.7891 39.8123 29.6523C39.9608 29.6016 39.953 29.6016 40.1014 29.6641Z" fill="#E68200"/>
<path d="M5.28087 29.7892C5.59337 29.9571 5.57384 30.4532 5.24962 30.6056C5.07775 30.6876 4.95665 30.6798 4.8004 30.5743C4.61681 30.4532 4.54259 30.2188 4.62462 30.0235C4.73009 29.7696 5.04259 29.6563 5.28087 29.7892Z" fill="#E68200"/>
<path d="M8.47665 30.1485C8.67197 30.2422 8.77353 30.4649 8.71494 30.6602C8.56259 31.1758 7.80869 31.0899 7.81259 30.5586C7.81259 30.4024 7.89072 30.2696 8.04306 30.168C8.20322 30.0586 8.29697 30.0547 8.47665 30.1485Z" fill="#E68200"/>
<path d="M6.90234 30.5079C7.05859 30.6016 7.10938 30.6954 7.10938 30.8868C7.10938 31.2188 6.82031 31.4337 6.50781 31.3282C6.32031 31.2696 6.21094 31.1055 6.21094 30.8907C6.21094 30.6954 6.28516 30.5704 6.44531 30.4883C6.59766 30.4102 6.75391 30.4141 6.90234 30.5079Z" fill="#E68200"/>
<path d="M8.91413 41.1251C9.16803 41.2775 9.19928 41.6368 8.98053 41.84C8.67194 42.1251 8.20319 41.9337 8.20319 41.5235C8.20319 41.1681 8.61335 40.9376 8.91413 41.1251Z" fill="#E68200"/>
<path d="M28.7187 41.8281C28.8398 41.8985 28.9453 42.0899 28.9453 42.2344C28.9453 42.3789 28.8008 42.5781 28.6445 42.6446C28.3672 42.7578 28.0586 42.5742 28.0195 42.2735C27.9687 41.8906 28.3906 41.6211 28.7187 41.8281Z" fill="#E68200"/>
<path d="M31.902 42.168C32.1364 42.2695 32.2184 42.5977 32.07 42.8398C31.9879 42.9805 31.7497 43.0742 31.5934 43.0352C31.2028 42.9336 31.109 42.4219 31.4411 42.1992C31.5934 42.0977 31.7223 42.0898 31.902 42.168Z" fill="#E68200"/>
<path d="M10.0195 42.4375C10.2188 42.5234 10.293 42.6406 10.293 42.8594C10.293 43.0312 10.2773 43.0664 10.1484 43.1875C10.0391 43.2852 9.96484 43.3203 9.86328 43.3203C9.47656 43.3203 9.25391 42.9492 9.45312 42.6289C9.57422 42.4297 9.81641 42.3477 10.0195 42.4375Z" fill="#E68200"/>
<path d="M30.3356 42.5352C30.5661 42.6759 30.6091 43.0313 30.4216 43.2305C30.1247 43.547 29.6286 43.3399 29.6286 42.8985C29.6286 42.7501 29.6481 42.711 29.7731 42.5938C29.945 42.4376 30.1403 42.418 30.3356 42.5352Z" fill="#E68200"/>
<path d="M11.7498 43.2032C11.8201 43.2461 11.906 43.3438 11.9412 43.418C11.9998 43.543 12.0037 43.5743 11.9529 43.7227C11.7771 44.2266 11.0545 44.1368 11.0545 43.6094C11.0545 43.418 11.1639 43.2579 11.3514 43.1797C11.5271 43.1055 11.5974 43.1094 11.7498 43.2032Z" fill="#E68200"/>
</g>
<defs>
<clipPath id="clip0_646_1267">
<rect width="50" height="44.0625" fill="white" transform="matrix(-1 0 0 1 50 0)"/>
</clipPath>
</defs>
</svg>
