<svg width="100" height="60" viewBox="0 0 100 60" fill="none" xmlns="http://www.w3.org/2000/svg">
<path d="M48.7189 12.1367C47.0627 12.6835 46.0939 14.4023 45.9611 17.0273C45.9221 17.7773 45.9455 17.996 46.1174 18.707C46.3517 19.6601 46.758 20.8242 47.6799 23.1601C48.5236 25.3085 48.6721 25.7851 49.0158 27.496C49.383 29.332 49.8439 31.9257 49.8439 32.1289C49.8439 32.2226 49.8752 32.3085 49.9064 32.332C49.9455 32.3554 50.1017 31.6054 50.2658 30.6757C51.0002 26.4492 51.1721 25.7695 52.2892 22.7695C52.8908 21.1289 53.3752 19.6601 53.5705 18.8632C53.7736 18.0273 53.7502 16.3632 53.5314 15.3085C53.2033 13.7617 52.4064 12.6289 51.3517 12.2148C50.7033 11.9648 49.3674 11.9257 48.7189 12.1367Z" fill="#E68200"/>
<path d="M36.5077 19.4022C34.7655 20.0038 34.1874 21.8944 35.3124 23.3163C35.8592 24.0038 36.9999 24.5897 39.4139 25.4257C41.0077 25.9725 41.8983 26.3944 42.8592 27.035C43.617 27.535 44.7342 28.5663 45.328 29.3163L45.7342 29.8241L45.8436 29.5585C46.2186 28.6522 45.4217 26.2694 44.0311 24.1366C43.0858 22.6913 41.8436 21.3007 40.742 20.4647C40.1952 20.0507 39.0311 19.4647 38.4999 19.3397C37.9452 19.2069 36.9764 19.2382 36.5077 19.4022Z" fill="#E68200"/>
<path d="M60.6482 19.4413C59.531 19.8085 58.4529 20.5585 57.2888 21.7773C55.5076 23.6366 53.9373 26.4257 53.5857 28.3398C53.4998 28.832 53.5388 29.5116 53.6716 29.7226C53.7341 29.8241 53.7654 29.8085 53.8826 29.6445C54.2029 29.1835 54.9607 28.371 55.4295 27.9726C56.5545 27.0195 57.3123 26.6132 59.6091 25.707C62.5388 24.5585 63.156 24.2538 63.8904 23.5898C64.4685 23.0663 64.7263 22.5038 64.7263 21.7538C64.7263 21.3007 64.6873 21.082 64.5466 20.8085C64.2654 20.2304 63.867 19.832 63.2966 19.5507C62.8279 19.3163 62.7029 19.2929 61.992 19.2773C61.3435 19.2538 61.117 19.2851 60.6482 19.4413Z" fill="#E68200"/>
<path d="M20.0781 21.1288C18.2188 21.371 16.5859 22.1444 15.5938 23.2616C14.4766 24.5038 13.9375 26.3788 14.1406 28.2616C14.4297 30.9023 15.9219 32.6991 18.4766 33.496C19.4531 33.8007 20.1797 33.8866 21.3438 33.8398C22.4531 33.7929 23.0312 33.6757 24.6328 33.1835C25.2578 32.9882 25.5781 32.9257 25.6328 32.9804C25.75 33.0976 20.0312 38.1757 17.5703 40.1288C13.7891 43.1366 11.5469 44.2304 8.64062 44.4882C6.33594 44.6991 4.4375 44.1523 3.19531 42.9257C2.24219 41.9882 1.91406 41.1835 1.91406 39.8007C1.91406 38.7694 2.03906 38.2851 2.47656 37.6366C2.77344 37.1991 3.05469 36.9491 3.57031 36.6835C4.32031 36.3085 5.72656 36.1601 6.3125 36.4101C6.625 36.5351 7.03125 36.8866 7.03125 37.0194C7.03125 37.0663 6.85156 37.1991 6.64062 37.3163C6.125 37.6054 5.91406 38.0116 5.90625 38.7069C5.89844 39.5429 6.25 40.0351 7.15625 40.4413C7.67188 40.6757 8.6875 40.6913 9.25781 40.4726C10.1562 40.1288 10.6797 39.5741 10.9531 38.6757C11.4141 37.1601 10.5938 35.6132 8.89062 34.8007C8.07031 34.4023 7.36719 34.2538 6.32031 34.2538C3.22656 34.2538 0.96875 35.5976 0.203125 37.9023C0.015625 38.4569 0 38.621 0 39.7694C0 40.8788 0.0234375 41.0819 0.1875 41.5663C0.96875 43.8788 2.71875 45.3241 5.39062 45.8554C6.25781 46.0273 8.01562 46.0898 8.98438 45.9804C11.8516 45.6523 14.4844 44.4726 17.6172 42.1054C19.0312 41.0351 19.6172 40.5351 22.5391 37.8866C23.7891 36.7538 25.0078 35.6601 25.2578 35.4569C25.875 34.9491 25.9453 35.0429 25.6328 35.9648C25.1094 37.5194 24.9688 39.5663 25.2969 40.8163C25.7812 42.6366 26.9375 44.1835 28.4453 45.0273C29.7656 45.7616 31.6641 46.0507 33.4375 45.7773C34.375 45.6366 34.8906 45.4804 35.6094 45.1288C36.8281 44.5273 37.7344 43.6366 38.2891 42.496C38.7734 41.496 38.8359 40.8554 38.5391 39.8085C38.3125 38.9804 37.9062 38.3163 37.2344 37.6523C36.2578 36.6757 35.2891 36.2851 33.8672 36.2851C32.3047 36.2851 31.1484 36.8398 30.5859 37.8554C30.375 38.2382 30.3516 38.3476 30.3516 38.9804C30.3516 39.5976 30.3828 39.7382 30.5703 40.1366C30.9297 40.8632 31.4141 41.1288 32.3828 41.1288C33.1406 41.1288 33.6875 40.8632 34.0156 40.3241C34.2109 40.0038 34.25 39.8476 34.2812 39.2929C34.3047 38.9179 34.2812 38.5351 34.2266 38.3866L34.1406 38.1366L34.5312 38.1757C35.0781 38.2304 35.8672 38.6366 36.2422 39.0663C37.1172 40.0663 37.1328 41.6991 36.2656 42.7851C35.6875 43.5194 34.6875 44.121 33.6094 44.3866C32.8594 44.5741 31.3984 44.5507 30.5859 44.3398C28.3359 43.7616 27.1406 42.2304 26.9219 39.6444C26.8672 39.0116 26.9844 37.7226 27.1562 37.0116C27.8281 34.3398 29.7344 32.5741 32.8438 31.7538C34.3281 31.3632 35.3125 31.246 37.2266 31.2538C38.7891 31.2538 39.0312 31.2694 39.9219 31.4648C44.9531 32.5351 47.875 35.3163 48.2891 39.4179C48.4844 41.4101 47.9844 43.1757 46.9844 44.0038C45.8047 44.9882 43.6406 45.1601 42.5938 44.3554C42 43.9023 41.7734 42.8241 42.1328 42.1835C42.3203 41.8554 42.9609 41.3632 43.2109 41.3632C43.3203 41.3632 43.3594 41.4179 43.3594 41.5741C43.3594 41.9491 43.7109 42.4257 44.1016 42.5741C44.75 42.8241 45.3906 42.5273 45.7422 41.7929C45.9219 41.4335 45.9531 41.2929 45.9062 40.996C45.8125 40.2851 45.2578 39.6601 44.5 39.4101C44.3125 39.3476 43.9531 39.3241 43.5547 39.3476C41.9531 39.4335 40.4922 40.7226 40.3438 42.1913C40.1484 44.0507 41.2891 45.5351 43.2188 45.9413C43.8984 46.0898 45.3047 46.0429 46.0938 45.8554C47.7656 45.4491 49.0859 44.2851 49.6562 42.7148C49.7734 42.3944 49.9062 42.1523 49.9453 42.1679C49.9922 42.1835 50.0859 42.371 50.1641 42.5976C50.5859 43.8398 51.4688 44.871 52.5859 45.4179C53.5859 45.9023 54.0781 46.0116 55.3516 46.0116C56.1797 46.0116 56.5547 45.9726 56.9062 45.8632C58.7422 45.3085 59.625 44.1132 59.5156 42.3319C59.4688 41.5663 59.25 41.0741 58.7109 40.5351C57.8516 39.6757 56.375 39.2773 55.2578 39.6054C55.0312 39.6757 54.7188 39.8554 54.5078 40.0429C53.8125 40.6444 53.7656 41.4726 54.3828 42.1757C54.9297 42.7929 55.5547 42.8398 56.0938 42.3007C56.2734 42.121 56.4297 41.8632 56.4844 41.6835C56.5781 41.3163 56.6172 41.3085 57.0156 41.5116C57.5859 41.8085 57.9219 42.3476 57.9219 43.0038C57.9297 43.8554 57.2969 44.5194 56.25 44.7538C54.4531 45.1679 52.7891 44.4335 52.0625 42.9023C51.7031 42.1366 51.5625 41.4335 51.5625 40.3007C51.5625 37.9257 52.3125 36.0116 53.875 34.4569C55.3047 33.0273 57.5234 31.9257 60.0156 31.4257C60.7812 31.2694 61.125 31.246 62.5781 31.2538C66.4922 31.2616 69.2734 32.1679 71.0312 34.0038C72.3984 35.4413 73.0781 37.4413 72.9375 39.6835C72.8516 41.1913 72.4922 42.1288 71.6719 43.0038C70.8359 43.8866 69.7891 44.3398 68.2188 44.496C66.0703 44.7148 63.9531 43.7304 63.2188 42.1601C63.0312 41.7616 63.0078 41.621 63.0078 40.8944C63.0078 40.1757 63.0312 40.0194 63.2188 39.6366C63.5938 38.8319 64.3594 38.2616 65.1875 38.1757L65.5625 38.1366L65.5078 38.4648C65.4453 38.8632 65.5938 39.8241 65.7891 40.1991C65.9766 40.5741 66.4141 40.9413 66.7734 41.0429C67.1875 41.1601 68.0078 41.1523 68.3047 41.0273C69.0391 40.7148 69.4609 40.0273 69.5156 39.0429C69.5469 38.4648 69.5312 38.3554 69.3438 37.9726C68.8203 36.9023 67.5859 36.2851 65.9766 36.2851C65.1406 36.2851 64.5391 36.4257 63.7891 36.7851C61.875 37.7226 60.7344 40.1366 61.3281 41.996C61.9141 43.8163 63.6562 45.2226 65.9375 45.7148C66.9141 45.9257 68.7812 45.9023 69.7109 45.6757C72.1328 45.0741 73.8359 43.4023 74.5391 40.9335C74.9609 39.4491 74.7656 37.371 74.0469 35.7929C73.5625 34.7382 73.8828 34.9257 76.25 37.0663C79.8438 40.3163 81.1953 41.4569 82.8125 42.6132C85.2109 44.3241 87.5859 45.4179 89.8828 45.871C90.8672 46.0663 93.2891 46.0663 94.2188 45.871C96.8047 45.3319 98.4609 44.1366 99.4062 42.1366C99.8281 41.2538 99.9609 40.6679 99.9531 39.7226C99.9453 37.3398 98.625 35.5038 96.3516 34.7148C95.125 34.2929 93.0938 34.121 92.0703 34.3632C89.9766 34.8554 88.5547 36.5585 88.8203 38.2382C88.9844 39.246 89.5391 39.9882 90.4531 40.4101C90.8281 40.5819 91.0078 40.621 91.6016 40.621C92.4922 40.621 93.0156 40.4491 93.4766 40.0038C94.3047 39.2069 94.1172 37.8085 93.1094 37.2929C92.9453 37.2069 92.8125 37.1132 92.8125 37.0741C92.8125 36.9257 93.1484 36.5976 93.4609 36.4491C94.1172 36.1288 95.5078 36.2773 96.4219 36.7694C97.4609 37.3241 97.9688 38.3163 97.9688 39.8007C97.9688 41.0585 97.5859 42.0507 96.7734 42.8632C95.6406 43.996 94.1953 44.5038 92.1094 44.5038C88.2031 44.5038 85.3672 42.9491 78.4766 36.996C75.0938 34.0819 73.9766 33.0585 74.0547 32.9804C74.1094 32.9257 74.4922 33.0038 75.2891 33.2226C77.75 33.9179 78.8438 34.0194 80.4141 33.6991C81.9922 33.3788 83.0547 32.8398 84.0625 31.8319C84.8281 31.0741 85.2812 30.2929 85.5625 29.2773C85.7891 28.4491 85.8047 26.5898 85.5938 25.7773C85.2578 24.4569 84.4375 23.2304 83.4062 22.5038C81.3906 21.0741 78.3281 20.6601 76.0938 21.5273C74.0391 22.3163 72.5781 24.2304 72.7812 25.8476C72.9688 27.3319 73.9375 28.2069 75.4688 28.3007C76.4062 28.3554 76.9453 28.1913 77.4297 27.7069C77.8516 27.2773 78.0078 26.8476 77.9453 26.2382C77.8438 25.2226 77.1797 24.6601 76.0625 24.621C75.7969 24.6132 75.625 24.5663 75.625 24.5194C75.625 24.3866 76.1562 23.6991 76.4609 23.4413C77.5469 22.5194 79.9531 22.5741 81.7031 23.5585C82.3594 23.9257 83.2109 24.8241 83.5078 25.4569C84.4062 27.3241 83.9453 29.7929 82.4766 31.0898C82.0078 31.5038 81.0234 32.0116 80.3516 32.1835C78.9219 32.5585 77.0625 32.3398 74.2969 31.4804C72.1016 30.7929 68.3672 30.0663 65.3125 29.7148C63.3984 29.5038 61.3438 29.4804 60.1406 29.6757C56.4297 30.2616 53.0625 32.1366 51.3281 34.5741C50.9531 35.1132 50.3359 36.2694 50.0938 36.9101L49.9844 37.1835L49.9062 36.9882C49.2266 35.4023 48.3594 34.0819 47.375 33.1601C44.5625 30.5351 40.3125 29.0976 36.2656 29.3944C33.2188 29.6288 28.6094 30.5273 25.4688 31.5116C23.4844 32.1288 21.7969 32.4257 20.6641 32.3554C19.2266 32.2616 18.1875 31.8163 17.2578 30.8944C16.3047 29.9491 15.9297 28.996 15.9297 27.5351C15.9219 26.1366 16.2891 25.2304 17.2266 24.2929C18.1406 23.371 19.3281 22.871 20.75 22.7929C22.2578 22.7069 23.3438 23.1444 24 24.0976C24.1562 24.3319 24.2969 24.5429 24.2969 24.5663C24.2969 24.5898 24.0625 24.621 23.7734 24.6288C22.7812 24.6523 22.1484 25.1366 21.9531 26.0116C21.6641 27.3241 22.6016 28.3163 24.1406 28.3163C25.5 28.3163 26.4844 27.7226 26.8906 26.6523C27.7109 24.496 25.9375 22.0663 23 21.3163C22.1641 21.1054 20.8828 21.0194 20.0781 21.1288Z" fill="#E68200"/>
</svg>
