<svg width="40" height="38" viewBox="0 0 40 38" fill="none" xmlns="http://www.w3.org/2000/svg">
<g clip-path="url(#clip0_646_1410)">
<path d="M11.4188 0.0312495C11.2438 0.0874996 11.0969 0.290625 11.1313 0.4375C11.1375 0.465625 11.0813 0.490624 10.9656 0.515625C10.6125 0.5875 10.4375 0.765625 10.4375 1.04375C10.4375 1.23125 10.5281 1.44687 10.6281 1.5C10.7563 1.57187 10.9813 1.52187 11.2344 1.36562C11.4406 1.24062 11.4594 1.23437 11.4031 1.30937C11.35 1.38125 11.3469 1.40937 11.375 1.4875C11.3938 1.5375 11.4469 1.61562 11.4938 1.6625C11.6125 1.79062 11.7375 1.77812 12.1063 1.60312L12.4125 1.45625L12.4719 1.52812C12.5031 1.56875 12.5313 1.63437 12.5313 1.675C12.5313 1.825 12.4688 1.89062 12.1656 2.04687C11.7625 2.25625 11.0844 2.65625 10.3594 3.1125C9.01564 3.9625 8.45939 4.25312 7.90939 4.39375C7.65939 4.45937 7.66564 4.44062 7.72189 4.78437L7.75939 5L7.87189 4.98125C8.53126 4.8625 9.32814 4.4875 10.5281 3.7375C11.6719 3.01875 12.4094 2.59687 12.9063 2.375C13.8594 1.94687 14.5875 1.78437 15.3563 1.82187C16.1594 1.86562 16.8094 2.09687 17.5625 2.60937C17.7531 2.7375 17.9156 2.84375 17.925 2.84375C17.9344 2.84375 18.025 2.77187 18.125 2.68125L18.3094 2.52187L18.0625 2.325C17.3625 1.775 16.7125 1.45937 15.9344 1.29062C15.5344 1.20625 14.6 1.2125 14.1563 1.30937C13.8875 1.36562 13.1188 1.60625 12.8969 1.70312C12.85 1.72187 12.8469 1.71562 12.875 1.64062C12.95 1.44687 12.8844 1.04375 12.7313 0.724999C12.6094 0.474999 12.35 0.2125 12.125 0.1125C11.9188 0.0187497 11.5844 -0.0187507 11.4188 0.0312495Z" fill="#A7B3C7"/>
<path d="M2.17169 0.309386C1.36232 0.440636 0.690443 0.93751 0.340443 1.67189C0.171693 2.02189 0.115443 2.26876 0.112318 2.65626C0.109193 3.59064 0.640443 4.38439 1.68107 5.00001C1.87169 5.11251 2.59669 5.44689 2.61232 5.42814C2.61544 5.42501 2.59669 5.27814 2.56857 5.10626L2.52169 4.78751L2.30294 4.68439C1.79357 4.44689 1.30919 4.05001 1.05919 3.66876C0.681068 3.08751 0.668568 2.38439 1.02169 1.78439C1.15919 1.55626 1.48419 1.24064 1.71232 1.11564C1.91232 1.00626 2.30294 0.90626 2.52169 0.90626C2.77482 0.90626 3.08732 0.987511 3.34982 1.12189L3.58419 1.24064L3.80607 1.05626C3.93107 0.953135 4.03107 0.859385 4.03107 0.846886C4.03107 0.775011 3.31857 0.428135 3.02482 0.359385C2.77482 0.300011 2.37482 0.278136 2.17169 0.309386Z" fill="#A7B3C7"/>
<path d="M6.03401 0.45625C5.11526 0.615625 4.17151 1.14688 3.54338 1.8625C3.34026 2.09375 2.98713 2.5625 3.01526 2.5625C3.02463 2.5625 3.21213 2.51875 3.43088 2.46563C3.76213 2.38438 3.83713 2.35313 3.89026 2.28438C4.31838 1.71563 4.99651 1.29063 5.81838 1.07813C6.24026 0.96875 6.93088 0.9375 7.37463 1.0125C8.40588 1.18125 9.36838 1.71563 10.1778 2.57188L10.4059 2.8125L10.6715 2.66563C10.8153 2.58125 10.9371 2.50625 10.9371 2.49375C10.9371 2.44375 10.1559 1.68438 9.92151 1.50938C9.24963 1.00625 8.59963 0.7 7.81213 0.509375C7.53401 0.44375 7.39338 0.428125 6.89026 0.41875C6.46526 0.4125 6.22151 0.421875 6.03401 0.45625Z" fill="#A7B3C7"/>
<path d="M21.703 1.39376C20.7843 1.55626 20.0937 1.86876 18.3749 2.89688C16.9312 3.75938 16.5749 3.94376 15.878 4.19063C15.5874 4.29063 15.5874 4.29063 15.8405 4.10938C16.0343 3.96876 16.228 3.73438 16.2812 3.57501C16.328 3.43438 16.303 3.18751 16.228 3.05938C16.1843 2.98438 15.8655 2.75001 15.8062 2.75001C15.7968 2.75001 15.7968 2.79688 15.803 2.85001C15.8093 2.90938 15.7874 2.86876 15.753 2.75626C15.6468 2.39688 15.478 2.29376 15.0405 2.32188C14.7593 2.33751 14.6468 2.38751 14.5874 2.51563C14.5343 2.63126 14.6062 2.75938 14.8405 2.97501C14.953 3.07813 15.0155 3.14688 14.978 3.12813C14.9405 3.10938 14.8749 3.09376 14.828 3.09376C14.7218 3.09376 14.6562 3.24376 14.6562 3.49688C14.6562 3.65313 14.6687 3.70001 14.7374 3.78126C14.7843 3.83438 14.8812 3.90626 14.9562 3.94376C15.0405 3.98126 15.0937 4.02813 15.0937 4.05938C15.0937 4.14063 14.9437 4.26876 14.7374 4.36251C14.5687 4.44063 14.5312 4.44376 14.2812 4.42813C13.4593 4.36876 12.6343 4.01876 11.8562 3.40313L11.6655 3.25313L11.4562 3.39376L11.2437 3.53751L11.378 3.65001C12.153 4.31876 12.9812 4.75313 13.8124 4.92813C14.203 5.00938 14.9124 5.00001 15.3343 4.90938C16.1718 4.73438 16.903 4.40001 18.1874 3.60626C20.2499 2.33751 20.8812 2.02188 21.803 1.80938C22.203 1.71563 22.953 1.69376 23.3624 1.76251C23.8187 1.84063 24.5062 2.07813 24.5405 2.16876C24.553 2.19688 24.5249 2.29063 24.4843 2.38126C24.3468 2.67501 24.403 3.09376 24.5968 3.23126C24.7437 3.33438 25.1249 3.24688 25.1249 3.10938C25.1249 3.01251 25.1812 3.06563 25.2155 3.19376C25.2624 3.38438 25.3593 3.52813 25.4718 3.57501L25.5718 3.61563L25.3562 3.68126C23.2874 4.30313 21.7968 4.40938 20.6187 4.01876C20.1593 3.86563 19.7624 3.65938 19.3937 3.37813L19.2093 3.23751L19.1343 3.33126C18.9405 3.56563 18.8999 3.62813 18.9249 3.65313C19.0093 3.72501 19.3499 3.96876 19.4843 4.05313C20.3843 4.60313 21.2343 4.81251 22.4187 4.77188C23.5812 4.73126 24.3999 4.53438 26.953 3.68438C29.5937 2.80313 30.3405 2.61876 31.4999 2.57188C32.1405 2.54688 32.278 2.58751 32.4062 2.84376C32.5124 3.05626 32.5124 3.07813 32.3874 3.12188C32.1155 3.21876 31.8968 3.52188 31.9124 3.77501C31.9218 3.91876 31.9249 3.92188 32.0562 3.96563C32.1812 4.00313 32.1999 4.00313 32.3437 3.93126C32.4312 3.88751 32.4999 3.85626 32.4999 3.86251C32.4999 3.86563 32.4499 3.94063 32.3905 4.03126C32.2437 4.24688 32.2405 4.40626 32.3749 4.53126C32.5874 4.72813 33.0374 4.77813 33.2062 4.62188C33.328 4.51251 33.3749 4.37188 33.3749 4.13438C33.3749 3.97188 33.3843 3.93438 33.4124 3.96251C33.4343 3.98438 33.5249 4.00001 33.6155 4.00001C33.7968 4.00001 33.8437 3.95626 33.8437 3.78126C33.8437 3.64063 33.7749 3.52813 33.5874 3.35938C33.3687 3.16251 33.1562 3.06251 32.9437 3.06251H32.7812L32.6999 2.88438C32.6593 2.78438 32.5999 2.68126 32.5718 2.65001C32.5249 2.59688 32.5312 2.59376 32.6905 2.59376C32.9624 2.59376 33.7593 2.68126 34.2749 2.76563C34.9343 2.87813 35.7062 3.07813 36.4843 3.34376C38.2718 3.95626 38.5218 4.02188 38.9843 3.99063C39.5405 3.95626 39.9187 3.67501 39.9874 3.25313C40.0312 2.97188 39.828 2.69376 39.4812 2.56251C39.2405 2.47188 38.6249 2.43126 38.6249 2.50626C38.6249 2.54376 38.6843 2.56251 38.8593 2.59063C39.2812 2.65313 39.5718 2.80001 39.6874 3.00938C39.9218 3.42188 39.3124 3.80938 38.6249 3.69063C38.3468 3.64063 38.1437 3.57188 37.2093 3.21563C36.0374 2.76563 35.4312 2.57501 34.6249 2.40938C33.278 2.13126 31.6812 2.05313 30.578 2.21563C29.5968 2.36251 28.7468 2.59063 26.578 3.29688C25.9968 3.48438 25.8405 3.52188 25.9999 3.43751C26.0999 3.38438 26.1874 3.21876 26.1874 3.08438C26.1874 2.91876 26.1187 2.77501 25.9562 2.60001C25.7968 2.42813 25.7874 2.40626 25.8718 2.40626C25.9062 2.40626 25.9687 2.36251 26.0093 2.30626C26.0749 2.22501 26.0812 2.19376 26.0562 2.12813C25.9749 1.90626 25.7374 1.78126 25.3624 1.75938C25.0593 1.74063 24.8812 1.78126 24.7405 1.90626L24.6374 1.99688L24.3062 1.82501C23.8999 1.61876 23.4249 1.45626 23.0312 1.39063C22.6687 1.33438 22.0405 1.33438 21.703 1.39376Z" fill="#A7B3C7"/>
<path d="M4.66563 1.7688L4.46875 1.9438L4.64375 2.16568C5.06875 2.70943 5.19063 3.12505 5.30937 4.44693C5.32188 4.61568 5.34375 4.75943 5.35 4.7688C5.35938 4.77818 5.49688 4.75943 5.65625 4.7313L5.94375 4.67818L5.92188 4.40943C5.84375 3.35943 5.6625 2.67193 5.32812 2.15318C5.175 1.9188 4.91563 1.5938 4.87813 1.5938C4.86875 1.5938 4.77187 1.67505 4.66563 1.7688Z" fill="#A7B3C7"/>
<path d="M4.40615 2.59692C3.39053 2.66567 2.29053 3.13754 1.69365 3.75629L1.55615 3.89692L1.79678 4.09379C2.0624 4.30942 2.01553 4.31254 2.29678 4.06567C2.70303 3.70942 3.29053 3.39379 3.80303 3.25942C4.03115 3.20004 4.21865 3.17504 4.54053 3.16567C4.7749 3.15629 4.96865 3.14379 4.96865 3.13754C4.96865 3.10629 4.7749 2.60629 4.75615 2.59379C4.74365 2.58442 4.5874 2.58442 4.40615 2.59692Z" fill="#A7B3C7"/>
<path d="M5.7277 2.64375C5.7402 2.67812 5.76832 2.79375 5.79645 2.90625L5.84645 3.1125L6.08395 3.21875C6.51207 3.40937 6.81207 3.79062 6.93395 4.29062C7.0152 4.625 7.00582 5.50625 6.9152 5.86562C6.89957 5.9375 6.90582 5.9375 7.1652 5.9375C7.39332 5.9375 7.43395 5.92812 7.44957 5.88125C7.49957 5.7125 7.53707 5.12187 7.52457 4.69375C7.50582 4.1375 7.4402 3.8625 7.23395 3.51562C6.98082 3.0875 6.40895 2.71562 5.83082 2.60937C5.72457 2.5875 5.71207 2.59062 5.7277 2.64375Z" fill="#A7B3C7"/>
<path d="M3.17163 3.70315L2.79663 3.8719L2.75601 4.0844C2.70288 4.36565 2.72476 5.06877 2.79663 5.34377C3.05601 6.3219 3.76226 6.89065 4.79976 6.9594L5.08101 6.97815L5.12788 6.7094C5.18101 6.40627 5.18101 6.40627 4.97163 6.40627C4.80288 6.40627 4.40913 6.30002 4.21538 6.20002C3.85601 6.01877 3.56851 5.65002 3.44976 5.21877C3.35913 4.90002 3.37476 4.23127 3.47788 3.84377C3.52163 3.68127 3.55601 3.5469 3.55288 3.54377C3.54976 3.54065 3.37788 3.61252 3.17163 3.70315Z" fill="#A7B3C7"/>
<path d="M0.752911 4.88125C0.596661 5.2125 0.487286 5.54688 0.434161 5.84375C0.384161 6.13125 0.384161 6.7 0.437286 6.95312C0.599786 7.74687 1.06854 8.59375 1.88104 9.57187C2.00916 9.72812 2.03104 9.775 2.03104 9.89062C2.03104 9.99062 2.00916 10.05 1.95291 10.1187C1.81541 10.2844 1.67166 10.3187 1.03104 10.3406C0.474786 10.3594 0.446661 10.3625 0.306036 10.4437C0.062286 10.5906 -0.025214 10.7437 0.015411 10.9563C0.034161 11.0687 0.037286 11.0687 0.156036 11.0531L0.274786 11.0375L0.227911 11.15C0.149786 11.3375 0.121661 11.5938 0.159161 11.775C0.218536 12.0656 0.490411 12.3438 0.718536 12.3438C0.956036 12.3438 1.04354 12.15 1.02479 11.6656C1.01541 11.3562 1.03729 11.2688 1.07166 11.4812C1.11854 11.775 1.28104 11.825 1.51541 11.6188C1.76854 11.3969 1.80291 11.2156 1.67166 10.8375C1.62791 10.7156 1.59354 10.6031 1.59354 10.5906C1.59354 10.5781 1.64041 10.5562 1.69666 10.5469C1.92791 10.4937 2.16229 10.3125 2.22166 10.1344L2.25604 10.0312L2.61541 10.4719C3.80604 11.9313 4.30916 12.8438 4.53416 13.9375C4.59354 14.2281 4.60604 14.3937 4.60604 14.8125C4.60604 15.0969 4.58729 15.4344 4.56541 15.5625C4.38416 16.6312 3.99041 17.5687 3.23729 18.7312L3.01854 19.0719L3.10916 19.3312C3.15916 19.475 3.20916 19.5938 3.21854 19.5938C3.22791 19.5938 3.34041 19.4406 3.47166 19.2562C4.53416 17.7656 5.07479 16.475 5.19354 15.15C5.28416 14.125 5.01854 13.0281 4.42791 11.9844C4.11229 11.425 3.71854 10.8719 3.03416 10.0188C1.96229 8.69063 1.63416 8.225 1.37479 7.67812C1.18729 7.28125 1.10604 7.04062 1.05916 6.7125C0.990411 6.2375 1.07166 5.7125 1.28729 5.24375L1.38416 5.03438L1.27791 4.94687C1.22166 4.9 1.10916 4.80625 1.02479 4.74062L0.874786 4.61875L0.752911 4.88125Z" fill="#A7B3C7"/>
<path d="M6.54678 4.70937C5.95615 4.91562 4.9124 5.0625 4.03115 5.0625H3.66553L3.71865 5.30312L3.77178 5.54688L4.3624 5.54375C4.73428 5.54375 5.10303 5.52187 5.35928 5.4875C5.7999 5.42812 6.41865 5.30625 6.6124 5.2375L6.73428 5.19687L6.72178 5.00312C6.71553 4.89687 6.70303 4.775 6.69053 4.7375C6.67178 4.66875 6.66865 4.66562 6.54678 4.70937Z" fill="#A7B3C7"/>
<path d="M5.57188 5.66566L5.375 5.69691V6.23441C5.375 7.99066 5.01875 8.94691 3.97813 9.99691L3.5625 10.4157L3.67188 10.575C3.88125 10.8719 3.8625 10.8594 3.94375 10.8032C3.98438 10.775 4.13125 10.65 4.275 10.5188C5.11563 9.75941 5.575 8.99066 5.77813 7.99378C5.87188 7.54691 5.90625 7.17503 5.92813 6.36566L5.94688 5.62503L5.85625 5.62816C5.80625 5.63128 5.67813 5.64691 5.57188 5.66566Z" fill="#A7B3C7"/>
<path d="M7.1715 6.11562C6.96525 6.14062 6.409 6.25312 6.25587 6.29687L6.09337 6.34687V6.59374C6.09337 6.95312 6.07775 6.94062 6.41525 6.85624C6.84337 6.74687 7.29025 6.68749 7.69337 6.68749C8.41525 6.68749 8.884 6.89687 9.084 7.30624C9.259 7.66562 9.16837 8.16874 8.88087 8.40624C8.35275 8.84062 7.5715 8.45937 7.37775 7.67499C7.35587 7.59062 7.34025 7.39062 7.34025 7.22499V6.92812L7.09025 6.94687C6.95275 6.95624 6.83087 6.97187 6.8215 6.98124C6.809 6.99062 6.80275 7.16562 6.80275 7.36562C6.80275 7.65937 6.81837 7.78124 6.87462 7.95312C7.09025 8.63749 7.57462 9.09062 8.19962 9.19374C8.89025 9.30937 9.59337 8.84374 9.76837 8.15624C9.83712 7.88749 9.81525 7.45624 9.7215 7.22187C9.48712 6.64062 8.93712 6.24999 8.18087 6.12499C7.99337 6.09687 7.37462 6.09062 7.1715 6.11562Z" fill="#A7B3C7"/>
<path d="M2.63707 11.1938C1.84332 12.0188 1.38707 12.975 1.24645 14.1063C1.19645 14.5282 1.22457 15.4063 1.30895 15.8907C1.5027 17.0063 1.81207 17.9344 2.6902 20.025C3.4152 21.75 3.6152 22.2969 3.76832 22.9594C3.91207 23.6 3.90582 24.3782 3.74957 25.125C3.5902 25.8844 3.36832 26.4532 2.75895 27.6719C2.1402 28.9063 1.98707 29.2782 1.8277 29.9438C1.53707 31.1657 1.7027 32.5532 2.32145 34.0969C2.4152 34.3282 2.6527 34.8657 2.84957 35.2969C3.04957 35.725 3.24332 36.175 3.28082 36.2938C3.41832 36.7094 3.36207 37.025 3.11207 37.2438C2.75582 37.5563 2.28082 37.2282 2.28082 36.6719C2.28082 36.5938 2.26832 36.5625 2.2402 36.5719C2.2152 36.5813 2.2027 36.6688 2.2027 36.8782C2.20582 37.1157 2.21832 37.1969 2.27145 37.2969C2.44645 37.6282 2.77457 37.7375 3.11207 37.5813C3.48395 37.4094 3.66832 36.9688 3.59332 36.4375C3.54332 36.0875 3.4402 35.7938 3.0277 34.8625C2.2777 33.1719 2.0652 32.3032 2.1027 31.0594C2.11832 30.4469 2.2027 29.9094 2.26207 30.0157C2.33395 30.1375 2.58082 30.3844 2.69332 30.4407C2.7652 30.4782 2.81207 30.525 2.81207 30.5594C2.81207 30.5907 2.76832 30.7407 2.7152 30.8938C2.54957 31.3625 2.58707 31.5438 2.87457 31.6657L3.02457 31.7282L2.99332 31.8407C2.83395 32.4157 3.4652 32.6563 3.8902 32.1813C4.00895 32.0532 4.15582 31.775 4.15582 31.6813C4.15582 31.6532 4.19332 31.5563 4.2402 31.4657C4.39957 31.1438 4.35895 30.8063 4.13082 30.5844C3.9777 30.4344 3.88707 30.4063 3.58082 30.4063C2.97145 30.4063 2.51207 30.15 2.3902 29.7375C2.34332 29.5875 2.34645 29.5813 2.45582 29.3C2.59332 28.9563 2.62457 28.8907 3.09645 28C3.56207 27.1157 3.74957 26.6969 3.93707 26.125C4.1902 25.35 4.31207 24.5969 4.31207 23.7844C4.31207 22.7157 4.08707 21.9532 3.06207 19.5157C2.1902 17.4469 1.9027 16.5313 1.76832 15.3938L1.74957 15.2375L1.84645 15.3844C2.4902 16.3594 4.27457 15.9188 4.29332 14.7844C4.29645 14.5063 4.20582 14.3657 3.97145 14.2969C3.89957 14.275 3.89957 14.2782 3.92145 14.425C3.94645 14.6157 3.9027 14.5782 3.83082 14.3563C3.68395 13.9 3.3902 13.6844 3.01832 13.7532C2.72457 13.8063 2.59332 13.9375 2.59332 14.175C2.59332 14.2719 2.61832 14.3157 2.74332 14.4375L2.8902 14.5875L2.7902 14.5844C2.61832 14.5782 2.49957 14.75 2.49957 15.0063C2.49957 15.1282 2.5152 15.1532 2.6902 15.3188C2.89957 15.5219 2.9152 15.5938 2.7402 15.5938C2.55895 15.5938 2.3152 15.5032 2.18395 15.3844C1.83082 15.0625 1.7027 14.3157 1.88707 13.6438C2.09645 12.8688 2.44645 12.2407 3.02457 11.5938L3.2152 11.3813L3.01832 11.2063C2.90895 11.1094 2.81207 11.0313 2.80582 11.0313C2.79957 11.0313 2.72457 11.1063 2.63707 11.1938ZM3.08082 31.5313L3.03707 31.6719L3.03395 31.5282C3.03082 31.3813 3.0527 31.3219 3.09957 31.3688C3.11207 31.3813 3.10582 31.4563 3.08082 31.5313Z" fill="#A7B3C7"/>
<path d="M2.27803 19.9125C2.13741 20.1406 1.55928 21.3469 1.44991 21.6406C1.25616 22.1688 1.20928 22.4594 1.20616 23.1719C1.20303 23.9969 1.26866 24.2656 1.59991 24.7719L1.72491 24.9688L1.67178 25.1688C1.51553 25.7375 1.77178 26.1406 2.31241 26.1813C2.42803 26.1875 2.57491 26.1875 2.63741 26.175C2.77491 26.15 2.92178 26.0281 2.99991 25.8781C3.04366 25.7906 3.08741 25.7531 3.18116 25.725C3.31866 25.6844 3.57491 25.4719 3.63741 25.3469C3.82491 24.975 3.57178 24.4813 3.22803 24.5469C3.15928 24.5594 3.07178 24.6156 2.98741 24.7L2.85303 24.8344L2.79366 24.7281C2.64991 24.4594 2.23116 24.4563 1.89991 24.7188L1.78428 24.8125L1.69366 24.5688C1.52178 24.125 1.51553 24.0875 1.51866 23.4219C1.52178 23.0781 1.53741 22.7063 1.55928 22.5938C1.66241 22.0344 2.02178 21.2063 2.42803 20.6L2.62491 20.3094L2.49991 20.0625C2.43116 19.925 2.36866 19.8125 2.35928 19.8125C2.34991 19.8125 2.31553 19.8594 2.27803 19.9125ZM2.71866 25.0125C2.71866 25.0188 2.69366 25.0438 2.66553 25.0656C2.61553 25.1063 2.61241 25.1031 2.65303 25.0531C2.69366 25.0031 2.71866 24.9875 2.71866 25.0125Z" fill="#A7B3C7"/>
</g>
<defs>
<clipPath id="clip0_646_1410">
<rect width="40" height="37.6562" fill="white"/>
</clipPath>
</defs>
</svg>
