<svg width="50" height="45" viewBox="0 0 50 45" fill="none" xmlns="http://www.w3.org/2000/svg">
<g clip-path="url(#clip0_646_1335)">
<path d="M31.5626 0.0273438C30.4884 0.191406 29.9103 0.957031 29.9728 2.12891C30.0041 2.64453 30.1486 3.19531 30.3869 3.69531C30.4923 3.91797 30.5744 4.10156 30.5666 4.10156C30.5626 4.10156 30.4337 4.05078 30.2892 3.98828C27.7189 2.89453 24.8986 2.96484 22.3986 4.18359C21.8556 4.44531 21.0548 4.94922 20.6525 5.28125C18.6681 6.90625 17.383 9.08594 16.8595 11.7188C16.6759 12.6406 16.6212 14.1758 16.7384 15.168C17.1251 18.4688 18.9923 21.207 21.5548 22.2266C23.1916 22.8789 24.9103 22.832 26.4806 22.0859C28.1212 21.3125 29.4025 19.8047 30.0001 17.9492C30.422 16.6445 30.4728 15.0664 30.133 13.7617C29.8439 12.6406 29.2853 11.6562 28.5314 10.9336C27.9376 10.3672 27.3126 10.0117 26.5431 9.79688C26.1134 9.67578 25.2033 9.65625 24.7228 9.75781C23.9416 9.91797 23.2384 10.2969 22.6603 10.8594C22.215 11.2969 21.9572 11.6445 21.6994 12.168C21.0939 13.3906 21.0705 14.7031 21.6408 15.8828C21.8673 16.3516 22.8087 17.6328 22.8791 17.5625C22.9142 17.5312 22.7228 17.2031 22.3322 16.6211C21.7501 15.7539 21.5666 15.3008 21.4884 14.5391C21.3244 12.9609 22.3048 11.2734 23.8009 10.5625C25.1994 9.90234 26.8556 10.1875 28.0275 11.2969C28.2267 11.4844 28.4884 11.7656 28.6056 11.9219C29.8595 13.5625 30.1212 16.0664 29.258 18.2227C28.9455 19.0078 28.5001 19.6641 27.8322 20.332C26.9689 21.1992 26.1134 21.668 24.9494 21.9219C24.3712 22.0469 23.3205 22.0469 22.7345 21.918C21.9767 21.7539 21.1837 21.4023 20.5275 20.9414C20.1017 20.6445 19.3869 19.9414 19.047 19.4922C17.9064 17.9766 17.3048 16.0742 17.3048 13.9883C17.3087 9.75391 19.8751 5.98438 23.5822 4.76953C24.5744 4.44141 25.2345 4.33594 26.2697 4.33594C27.5314 4.33594 28.5666 4.54688 29.715 5.04297C31.3947 5.76172 32.9416 7.08203 34.1095 8.78906C35.7775 11.2227 36.6251 14.5742 36.4064 17.8594C36.1564 21.5977 34.6837 24.9766 32.1916 27.5508C31.6212 28.1367 31.2658 28.4336 30.5861 28.8867C28.1994 30.4727 24.3751 31.9375 20.6017 32.7109C18.3595 33.1719 16.3517 33.3906 14.2384 33.4102C13.1408 33.418 13.2072 33.4336 12.6955 33.0859C11.59 32.3359 10.9923 30.9102 11.2267 29.5781C11.5431 27.7734 13.0626 26.8125 14.4728 27.5273C14.9494 27.7695 15.4025 28.4023 15.5275 29.0039C15.7228 29.9336 15.34 30.8633 14.6173 31.2188C14.465 31.293 14.3712 31.3086 14.0626 31.3086C13.7384 31.3086 13.6681 31.293 13.4962 31.2031C13.2501 31.0742 12.9533 30.7617 12.8478 30.5195C12.8048 30.4219 12.7501 30.2148 12.7267 30.0625C12.672 29.707 12.7501 29.3711 12.9572 29.0703C13.4962 28.2852 14.6095 28.6367 14.6095 29.5938C14.6095 29.8281 14.5626 29.9648 14.3595 30.293L14.2892 30.4102L14.3947 30.293C14.6759 29.9805 14.7462 29.5078 14.5744 29.1211C14.4611 28.8672 14.3244 28.7227 14.0822 28.6094C13.3048 28.2422 12.5197 28.9766 12.59 30C12.6251 30.5352 12.8673 30.9688 13.2814 31.2422C13.8439 31.6172 14.5666 31.5508 15.0744 31.0742C15.3322 30.832 15.4806 30.5977 15.6095 30.2148C15.6994 29.9531 15.715 29.8359 15.7189 29.4727C15.7228 28.9883 15.6369 28.6445 15.4181 28.2227C15.2658 27.9336 14.7775 27.4375 14.5041 27.293C14.2697 27.168 13.7697 27.0312 13.5392 27.0312C13.3869 27.0273 13.383 27.0273 13.4572 26.9688C13.7697 26.7383 13.9455 26.4688 13.9455 26.2266C13.9455 26.1211 13.9142 26.0547 13.8166 25.957C13.6017 25.7422 13.2072 25.6836 13.2541 25.875C13.2658 25.9219 13.2931 26.0273 13.3166 26.1094C13.3634 26.3047 13.3087 26.6289 13.1837 26.8789C13.1017 27.0391 13.0705 27.0664 12.9064 27.1055C11.6251 27.4297 10.7462 28.9492 10.9025 30.5703C10.9962 31.5742 11.422 32.4297 12.172 33.1172L12.4806 33.4023L12.1486 33.375C9.39077 33.1797 7.09389 32.6875 4.86343 31.8086C4.56264 31.6914 3.91421 31.3945 3.41811 31.1523C2.23452 30.5703 1.42983 30.082 0.437644 29.3477C-0.0818873 28.9648 -0.156106 29.0078 0.343894 29.4062C1.92593 30.6719 4.05483 31.8086 6.19546 32.5391C8.38296 33.2852 10.508 33.6992 13.2423 33.9141C14.0861 33.9766 16.9962 33.9766 17.8517 33.9141C19.5783 33.7812 21.4572 33.5352 22.59 33.2969L22.8673 33.2383L23.0783 33.4453C23.8517 34.207 24.2345 35.418 24.1095 36.7266C23.9923 37.9766 23.4923 39.0469 22.6173 39.9219C20.7228 41.8242 17.9455 41.8086 16.8322 39.8945C16.3634 39.082 16.3517 37.9609 16.8048 37.0508C17.4337 35.7969 18.8166 35.0234 19.9533 35.293C20.6369 35.4531 21.133 35.918 21.3322 36.5703C21.4455 36.9453 21.422 37.4805 21.2736 37.8672C20.7267 39.3008 18.9142 39.7734 18.2619 38.6523C17.9572 38.1289 18.0939 37.4414 18.5978 36.9766C18.8361 36.7539 18.9962 36.6875 19.5314 36.5703C19.6876 36.5352 19.6955 36.5312 19.5822 36.5273C19.3947 36.5195 19.0666 36.5977 18.8439 36.7031C18.5783 36.8281 18.2697 37.1641 18.1134 37.4883C18.0001 37.7266 17.9884 37.7891 17.9884 38.1055C17.9884 38.4023 18.0041 38.4922 18.0939 38.6758C18.2853 39.0938 18.6564 39.3672 19.1525 39.457C20.0431 39.6211 21.133 38.8828 21.4845 37.875C21.6408 37.4414 21.6564 36.8711 21.5275 36.457C21.4494 36.1992 21.2228 35.832 21.0119 35.625C20.3361 34.9609 19.2345 34.8516 18.2228 35.3477C17.1447 35.8789 16.3673 36.9727 16.2072 38.1836C16.008 39.7148 16.9494 41.1719 18.4181 41.5938C19.1212 41.7969 19.7189 41.8047 20.5001 41.6172C21.9259 41.2734 23.3166 40.1172 24.0431 38.6719C24.4376 37.8828 24.6173 37.1211 24.6212 36.2109C24.6212 34.9766 24.3361 34.0703 23.6994 33.3086C23.6134 33.207 23.5509 33.1172 23.5587 33.1094C23.5666 33.1016 23.8126 33.0391 24.1017 32.9727C27.0783 32.2773 29.84 31.1914 31.6681 30C31.9142 29.8359 31.9923 29.8086 32.2892 29.7656C32.7853 29.6953 33.8556 29.7344 34.3673 29.8398C35.5978 30.0977 36.6603 30.5703 37.5978 31.2695C38.0509 31.6094 38.7697 32.3398 39.133 32.8281C39.8869 33.8477 40.3947 35.0234 40.6095 36.25C40.7189 36.8711 40.7111 37.9609 40.5939 38.5469C40.2736 40.1328 39.4064 41.3438 38.1056 42.0039C37.7345 42.1914 37.2033 42.3633 36.7931 42.4219C36.3908 42.4805 35.6525 42.4531 35.2541 42.3672C34.1525 42.1211 33.1134 41.4492 32.4181 40.5234C31.297 39.0312 31.0509 37.2109 31.7814 35.8164C32.1603 35.0977 32.8478 34.5508 33.633 34.3516C33.9767 34.2617 34.6251 34.2617 34.9806 34.3516C35.6017 34.5078 36.258 34.9219 36.7072 35.4414C37.3556 36.1953 37.6486 37.3203 37.4259 38.1992C37.1642 39.2383 36.2697 39.8789 35.2892 39.7383C34.3634 39.6055 33.5822 38.793 33.4572 37.8281C33.4337 37.6562 33.4728 37.1328 33.5392 36.7656C33.5548 36.6953 33.547 36.6406 33.5236 36.6406C33.5041 36.6406 33.4767 36.707 33.4611 36.7852C33.4494 36.8672 33.4103 37.082 33.3791 37.2656C33.1759 38.3867 33.9337 39.5547 35.0861 39.9102C35.4181 40.0156 35.9689 39.9961 36.3244 39.8711C37.297 39.5273 37.8673 38.5664 37.8009 37.3828C37.6916 35.4336 35.9572 33.8359 34.09 33.957C31.7775 34.1094 30.4845 36.5273 31.3166 39.1406C31.4572 39.5742 31.8087 40.2695 32.0939 40.6719C32.4142 41.1211 33.0392 41.7344 33.4767 42.0273C34.4181 42.6562 35.297 42.9375 36.3087 42.9375C37.1525 42.9375 37.797 42.7852 38.5158 42.418C39.7736 41.7734 40.6876 40.6055 41.0978 39.1094L41.1837 38.7891L41.258 38.9922C41.3517 39.2656 41.5822 39.5977 41.7853 39.75C41.9689 39.8906 42.215 39.9492 42.4376 39.9062C42.7619 39.8438 43.2189 39.3984 43.1955 39.1641C43.1837 39.043 43.1837 39.043 42.8947 39.0156C42.5236 38.9844 42.1369 38.7969 41.7931 38.4805C41.3361 38.0625 41.3361 38.0625 41.3126 37.2266C41.2892 36.2852 41.172 35.6172 40.8947 34.8008C40.0119 32.1992 38.0275 30.1992 35.508 29.3594C34.715 29.0938 33.7697 28.9062 33.2423 28.9062C33.1134 28.9062 33.008 28.8945 33.008 28.8828C33.008 28.8711 33.1681 28.6875 33.3634 28.4766C36.9689 24.5781 38.4962 18.832 37.3634 13.4375C36.883 11.1641 35.9025 8.98828 34.633 7.41016C34.3517 7.05469 34.3166 6.91016 34.3205 6.09375C34.3244 5.51172 34.3322 5.41406 34.4298 5.10156C34.6017 4.52734 34.7462 4.27344 35.0861 3.94141C35.4298 3.60547 35.465 3.49609 35.2853 3.36719C34.9962 3.16406 34.2736 3.08984 33.9064 3.22266C33.2931 3.44141 33.0353 3.84375 33.0353 4.57031C33.0353 5.01172 33.1173 5.36719 33.3166 5.78906L33.4611 6.08594L33.3361 5.98438C32.6251 5.38281 32.3947 5.19922 32.1056 5L31.7697 4.76953L31.7462 4.45312C31.7072 3.83594 31.8244 3 32.0392 2.38672C32.2658 1.75 32.6095 1.25781 33.133 0.839844C33.3126 0.691406 33.34 0.597656 33.2462 0.445312C33.0626 0.144531 32.1955 -0.0703125 31.5626 0.0273438Z" fill="#A7B3C7"/>
<path d="M36.4532 8.23054C35.918 8.49226 36.1134 9.33992 36.711 9.34773C37.0704 9.35164 37.3204 9.10554 37.3204 8.74226C37.3204 8.31258 36.8516 8.03523 36.4532 8.23054Z" fill="#A7B3C7"/>
<path d="M37.6562 9.84771C37.4804 9.88678 37.2265 10.1485 37.2226 10.3008C37.2148 10.543 37.2382 10.6485 37.3281 10.7735C37.6796 11.2344 38.3984 11.004 38.3984 10.4297C38.3984 10.043 38.0468 9.76568 37.6562 9.84771Z" fill="#A7B3C7"/>
<path d="M37.8127 11.961C37.4612 12.1407 37.3674 12.5821 37.6213 12.8712C37.7698 13.0352 37.9299 13.1016 38.1409 13.0782C38.8362 13.0001 38.8401 11.9962 38.1448 11.8946C38.0276 11.8751 37.9456 11.8907 37.8127 11.961Z" fill="#A7B3C7"/>
<path d="M46.2852 12.8047C45.7383 12.9883 45.168 13.3516 44.7383 13.8008C44.0742 14.4922 43.5781 15.3828 42.5391 17.7344C41.5039 20.0859 40.9609 21.0391 40.2578 21.7422C39.8086 22.1914 39.4805 22.3828 39.0039 22.4766L38.7305 22.5312L39.0234 22.543C41.2031 22.6289 44.6484 21.7969 46.543 20.7305C47.0352 20.4531 47.7656 19.8906 48.2031 19.4531C49.8555 17.8047 50.0859 16.0234 48.8594 14.3281C48.2773 13.5234 47.8477 13.1055 47.3828 12.8828C47.0547 12.7227 46.6211 12.6953 46.2852 12.8047Z" fill="#A7B3C7"/>
<path d="M24.5117 13.715C24.0312 13.7853 23.7617 13.9298 23.625 14.1915C23.5469 14.336 23.5352 14.4103 23.5352 14.8243C23.5391 15.2618 23.5469 15.3126 23.6602 15.5782C23.8203 15.9376 24.1094 16.3829 24.6875 17.1485C25.2461 17.8946 25.4414 18.1798 25.5938 18.4845C25.8086 18.9181 25.8711 19.2735 25.7812 19.5157C25.7148 19.6915 25.7695 19.6681 25.8984 19.4689C26.2539 18.9064 26.6875 17.8165 26.8906 16.961C27.0234 16.4064 27.0586 16.0275 27.0234 15.5235C26.9492 14.4454 26.5039 13.8439 25.6758 13.711C25.4062 13.6642 24.8359 13.6681 24.5117 13.715Z" fill="#A7B3C7"/>
<path d="M49.3519 18.9688C49.0823 19.1016 49.0276 19.4649 49.2425 19.6915C49.6175 20.0821 50.2034 19.6133 49.9222 19.1485C49.848 19.0274 49.6448 18.9063 49.5237 18.9063C49.4964 18.9063 49.4183 18.9336 49.3519 18.9688Z" fill="#A7B3C7"/>
<path d="M48.4063 20.4454C48.0938 20.6173 48.0899 21.0821 48.3985 21.2657C48.5821 21.3712 48.7696 21.3478 48.9375 21.1954C49.0703 21.0743 49.0821 21.0431 49.0821 20.8595C49.0821 20.6759 49.0703 20.6446 48.9375 20.5235C48.7774 20.379 48.5781 20.3478 48.4063 20.4454Z" fill="#A7B3C7"/>
<path d="M32.1875 20.9571C32.1875 21.1407 32.0117 21.4688 31.7891 21.7032C31.2852 22.2383 30.5352 22.5977 28.7305 23.1641C27.2891 23.6172 26.8516 23.7774 26.25 24.0703C25.7148 24.3321 25.6641 24.3672 25.3281 24.7071C24.8672 25.1719 24.668 25.543 24.668 25.9375C24.668 26.1602 24.6914 26.2383 24.8203 26.5078C24.9492 26.7696 25.0508 26.8907 25.4648 27.3086C25.8867 27.7305 26.0039 27.8243 26.2773 27.961C26.6914 28.1641 26.9531 28.2188 27.4414 28.1914C27.7305 28.1797 27.9063 28.1485 28.1094 28.0703C29.1055 27.7032 30.0391 26.8243 30.8047 25.5391C31.7422 23.961 32.3555 22.1875 32.293 21.2344C32.2813 21.0664 32.2539 20.9102 32.2305 20.8868C32.1992 20.8555 32.1875 20.875 32.1875 20.9571Z" fill="#A7B3C7"/>
<path d="M46.7933 21.1055C46.6058 21.2305 46.5276 21.461 46.6058 21.6641C46.7386 22.0157 47.1565 22.0977 47.4104 21.8203C47.7972 21.3985 47.2659 20.7852 46.7933 21.1055Z" fill="#A7B3C7"/>
<path d="M44.0664 23.9102C43.3047 24.0587 42.4766 24.4923 40.5195 25.7735C38.9414 26.8087 38.2305 27.1876 37.4688 27.4063C37.1523 27.4962 37.0508 27.5079 36.707 27.4923C36.4023 27.4806 36.2617 27.4571 36.1133 27.3907C35.9297 27.3087 35.9219 27.3048 35.9961 27.379C36.25 27.6329 37.4492 28.2657 38.3203 28.6056C39.875 29.2188 41.3047 29.5431 42.4023 29.5391C44.4961 29.5352 45.9258 28.754 46.3984 27.3634C46.5 27.0626 46.5039 27.0196 46.5039 26.2696C46.5 25.6016 46.4883 25.4376 46.4141 25.1485C46.2266 24.3868 45.9219 24.0587 45.2773 23.922C44.9961 23.8634 44.3398 23.8556 44.0664 23.9102Z" fill="#A7B3C7"/>
<path d="M10.7616 27.0782C10.5194 27.211 10.4726 27.5079 10.6601 27.6993C10.9726 28.0079 11.496 27.6133 11.289 27.2227C11.203 27.0665 10.9257 26.9883 10.7616 27.0782Z" fill="#A7B3C7"/>
<path d="M9.80107 28.2774C9.60575 28.4766 9.67997 28.8204 9.93779 28.9063C10.1136 28.961 10.2503 28.9219 10.3714 28.7813C10.5862 28.5235 10.4183 28.1641 10.0784 28.1641C9.9495 28.1641 9.89091 28.1876 9.80107 28.2774Z" fill="#A7B3C7"/>
<path d="M9.8986 29.6641C9.50016 29.8398 9.60954 30.3906 10.0392 30.3906C10.465 30.3906 10.5861 29.7891 10.1877 29.6523C10.0392 29.6016 10.047 29.6016 9.8986 29.6641Z" fill="#A7B3C7"/>
<path d="M44.7191 29.7892C44.4066 29.9571 44.4262 30.4532 44.7504 30.6056C44.9223 30.6876 45.0433 30.6798 45.1996 30.5743C45.3832 30.4532 45.4574 30.2188 45.3754 30.0235C45.2699 29.7696 44.9574 29.6563 44.7191 29.7892Z" fill="#A7B3C7"/>
<path d="M41.5233 30.1485C41.328 30.2422 41.2265 30.4649 41.2851 30.6602C41.4374 31.1758 42.1913 31.0899 42.1874 30.5586C42.1874 30.4024 42.1093 30.2696 41.9569 30.168C41.7968 30.0586 41.703 30.0547 41.5233 30.1485Z" fill="#A7B3C7"/>
<path d="M43.0977 30.5079C42.9414 30.6016 42.8906 30.6954 42.8906 30.8868C42.8906 31.2188 43.1797 31.4337 43.4922 31.3282C43.6797 31.2696 43.7891 31.1055 43.7891 30.8907C43.7891 30.6954 43.7148 30.5704 43.5547 30.4883C43.4023 30.4102 43.2461 30.4141 43.0977 30.5079Z" fill="#A7B3C7"/>
<path d="M41.0859 41.1251C40.832 41.2775 40.8007 41.6368 41.0195 41.84C41.3281 42.1251 41.7968 41.9337 41.7968 41.5235C41.7968 41.1681 41.3867 40.9376 41.0859 41.1251Z" fill="#A7B3C7"/>
<path d="M21.2813 41.8281C21.1602 41.8985 21.0547 42.0899 21.0547 42.2344C21.0547 42.3789 21.1992 42.5781 21.3555 42.6446C21.6328 42.7578 21.9414 42.5742 21.9805 42.2735C22.0313 41.8906 21.6094 41.6211 21.2813 41.8281Z" fill="#A7B3C7"/>
<path d="M18.098 42.168C17.8636 42.2695 17.7816 42.5977 17.93 42.8398C18.0121 42.9805 18.2503 43.0742 18.4066 43.0352C18.7972 42.9336 18.891 42.4219 18.5589 42.1992C18.4066 42.0977 18.2777 42.0898 18.098 42.168Z" fill="#A7B3C7"/>
<path d="M39.9805 42.4375C39.7812 42.5234 39.707 42.6406 39.707 42.8594C39.707 43.0312 39.7227 43.0664 39.8516 43.1875C39.9609 43.2852 40.0352 43.3203 40.1367 43.3203C40.5234 43.3203 40.7461 42.9492 40.5469 42.6289C40.4258 42.4297 40.1836 42.3477 39.9805 42.4375Z" fill="#A7B3C7"/>
<path d="M19.6644 42.5352C19.4339 42.6759 19.3909 43.0313 19.5784 43.2305C19.8753 43.547 20.3714 43.3399 20.3714 42.8985C20.3714 42.7501 20.3519 42.711 20.2269 42.5938C20.055 42.4376 19.8597 42.418 19.6644 42.5352Z" fill="#A7B3C7"/>
<path d="M38.2502 43.2032C38.1799 43.2461 38.094 43.3438 38.0588 43.418C38.0002 43.543 37.9963 43.5743 38.0471 43.7227C38.2229 44.2266 38.9455 44.1368 38.9455 43.6094C38.9455 43.418 38.8361 43.2579 38.6486 43.1797C38.4729 43.1055 38.4026 43.1094 38.2502 43.2032Z" fill="#A7B3C7"/>
</g>
<defs>
<clipPath id="clip0_646_1335">
<rect width="50" height="44.0625" fill="white"/>
</clipPath>
</defs>
</svg>
