<svg width="100" height="60" viewBox="0 0 100 60" fill="none" xmlns="http://www.w3.org/2000/svg">
<g clip-path="url(#clip0_646_1388)">
<path d="M48.7189 11.8672C47.0627 12.4141 46.0939 14.1328 45.9611 16.7578C45.9221 17.5078 45.9455 17.7266 46.1174 18.4375C46.3517 19.3906 46.758 20.5547 47.6799 22.8906C48.5236 25.0391 48.6721 25.5156 49.0158 27.2266C49.383 29.0625 49.8439 31.6563 49.8439 31.8594C49.8439 31.9531 49.8752 32.0391 49.9064 32.0625C49.9455 32.086 50.1017 31.336 50.2658 30.4063C51.0002 26.1797 51.1721 25.5 52.2892 22.5C52.8908 20.8594 53.3752 19.3906 53.5705 18.5938C53.7736 17.7578 53.7502 16.0938 53.5314 15.0391C53.2033 13.4922 52.4064 12.3594 51.3517 11.9453C50.7033 11.6953 49.3674 11.6563 48.7189 11.8672Z" fill="#A7B3C7"/>
<path d="M36.5077 19.1328C34.7655 19.7344 34.1874 21.625 35.3124 23.0469C35.8592 23.7344 36.9999 24.3203 39.4139 25.1562C41.0077 25.7031 41.8983 26.125 42.8592 26.7656C43.617 27.2656 44.7342 28.2969 45.328 29.0469L45.7342 29.5547L45.8436 29.2891C46.2186 28.3828 45.4217 26 44.0311 23.8672C43.0858 22.4219 41.8436 21.0312 40.742 20.1953C40.1952 19.7812 39.0311 19.1953 38.4999 19.0703C37.9452 18.9375 36.9764 18.9688 36.5077 19.1328Z" fill="#A7B3C7"/>
<path d="M60.6482 19.1719C59.531 19.5391 58.4529 20.2891 57.2888 21.5079C55.5076 23.3672 53.9373 26.1563 53.5857 28.0704C53.4998 28.5625 53.5388 29.2422 53.6716 29.4532C53.7341 29.5547 53.7654 29.5391 53.8826 29.375C54.2029 28.9141 54.9607 28.1016 55.4295 27.7032C56.5545 26.75 57.3123 26.3438 59.6091 25.4375C62.5388 24.2891 63.156 23.9844 63.8904 23.3204C64.4685 22.7969 64.7263 22.2344 64.7263 21.4844C64.7263 21.0313 64.6873 20.8125 64.5466 20.5391C64.2654 19.961 63.867 19.5625 63.2966 19.2813C62.8279 19.0469 62.7029 19.0235 61.992 19.0079C61.3435 18.9844 61.117 19.0157 60.6482 19.1719Z" fill="#A7B3C7"/>
<path d="M20.0781 20.8594C18.2188 21.1016 16.5859 21.875 15.5938 22.9922C14.4766 24.2344 13.9375 26.1094 14.1406 27.9922C14.4297 30.6328 15.9219 32.4297 18.4766 33.2266C19.4531 33.5313 20.1797 33.6172 21.3438 33.5703C22.4531 33.5235 23.0312 33.4063 24.6328 32.9141C25.2578 32.7188 25.5781 32.6563 25.6328 32.711C25.75 32.8282 20.0312 37.9063 17.5703 39.8594C13.7891 42.8672 11.5469 43.961 8.64062 44.2188C6.33594 44.4297 4.4375 43.8828 3.19531 42.6563C2.24219 41.7188 1.91406 40.9141 1.91406 39.5313C1.91406 38.5 2.03906 38.0157 2.47656 37.3672C2.77344 36.9297 3.05469 36.6797 3.57031 36.4141C4.32031 36.0391 5.72656 35.8907 6.3125 36.1407C6.625 36.2657 7.03125 36.6172 7.03125 36.75C7.03125 36.7969 6.85156 36.9297 6.64062 37.0469C6.125 37.336 5.91406 37.7422 5.90625 38.4375C5.89844 39.2735 6.25 39.7657 7.15625 40.1719C7.67188 40.4063 8.6875 40.4219 9.25781 40.2032C10.1562 39.8594 10.6797 39.3047 10.9531 38.4063C11.4141 36.8907 10.5938 35.3438 8.89062 34.5313C8.07031 34.1328 7.36719 33.9844 6.32031 33.9844C3.22656 33.9844 0.96875 35.3282 0.203125 37.6328C0.015625 38.1875 0 38.3516 0 39.5C0 40.6094 0.0234375 40.8125 0.1875 41.2969C0.96875 43.6094 2.71875 45.0547 5.39062 45.586C6.25781 45.7578 8.01562 45.8203 8.98438 45.711C11.8516 45.3828 14.4844 44.2032 17.6172 41.836C19.0312 40.7657 19.6172 40.2657 22.5391 37.6172C23.7891 36.4844 25.0078 35.3907 25.2578 35.1875C25.875 34.6797 25.9453 34.7735 25.6328 35.6953C25.1094 37.25 24.9688 39.2969 25.2969 40.5469C25.7812 42.3672 26.9375 43.9141 28.4453 44.7578C29.7656 45.4922 31.6641 45.7813 33.4375 45.5078C34.375 45.3672 34.8906 45.211 35.6094 44.8594C36.8281 44.2578 37.7344 43.3672 38.2891 42.2266C38.7734 41.2266 38.8359 40.586 38.5391 39.5391C38.3125 38.711 37.9062 38.0469 37.2344 37.3828C36.2578 36.4063 35.2891 36.0157 33.8672 36.0157C32.3047 36.0157 31.1484 36.5703 30.5859 37.586C30.375 37.9688 30.3516 38.0782 30.3516 38.711C30.3516 39.3282 30.3828 39.4688 30.5703 39.8672C30.9297 40.5938 31.4141 40.8594 32.3828 40.8594C33.1406 40.8594 33.6875 40.5938 34.0156 40.0547C34.2109 39.7344 34.25 39.5782 34.2812 39.0235C34.3047 38.6485 34.2812 38.2657 34.2266 38.1172L34.1406 37.8672L34.5312 37.9063C35.0781 37.961 35.8672 38.3672 36.2422 38.7969C37.1172 39.7969 37.1328 41.4297 36.2656 42.5157C35.6875 43.25 34.6875 43.8516 33.6094 44.1172C32.8594 44.3047 31.3984 44.2813 30.5859 44.0703C28.3359 43.4922 27.1406 41.961 26.9219 39.375C26.8672 38.7422 26.9844 37.4532 27.1562 36.7422C27.8281 34.0703 29.7344 32.3047 32.8438 31.4844C34.3281 31.0938 35.3125 30.9766 37.2266 30.9844C38.7891 30.9844 39.0312 31 39.9219 31.1953C44.9531 32.2657 47.875 35.0469 48.2891 39.1485C48.4844 41.1407 47.9844 42.9063 46.9844 43.7344C45.8047 44.7188 43.6406 44.8907 42.5938 44.086C42 43.6328 41.7734 42.5547 42.1328 41.9141C42.3203 41.586 42.9609 41.0938 43.2109 41.0938C43.3203 41.0938 43.3594 41.1485 43.3594 41.3047C43.3594 41.6797 43.7109 42.1563 44.1016 42.3047C44.75 42.5547 45.3906 42.2578 45.7422 41.5235C45.9219 41.1641 45.9531 41.0235 45.9062 40.7266C45.8125 40.0157 45.2578 39.3907 44.5 39.1407C44.3125 39.0782 43.9531 39.0547 43.5547 39.0782C41.9531 39.1641 40.4922 40.4532 40.3438 41.9219C40.1484 43.7813 41.2891 45.2657 43.2188 45.6719C43.8984 45.8203 45.3047 45.7735 46.0938 45.586C47.7656 45.1797 49.0859 44.0157 49.6562 42.4453C49.7734 42.125 49.9062 41.8828 49.9453 41.8985C49.9922 41.9141 50.0859 42.1016 50.1641 42.3282C50.5859 43.5703 51.4688 44.6016 52.5859 45.1485C53.5859 45.6328 54.0781 45.7422 55.3516 45.7422C56.1797 45.7422 56.5547 45.7032 56.9062 45.5938C58.7422 45.0391 59.625 43.8438 59.5156 42.0625C59.4688 41.2969 59.25 40.8047 58.7109 40.2657C57.8516 39.4063 56.375 39.0078 55.2578 39.336C55.0312 39.4063 54.7188 39.586 54.5078 39.7735C53.8125 40.375 53.7656 41.2032 54.3828 41.9063C54.9297 42.5235 55.5547 42.5703 56.0938 42.0313C56.2734 41.8516 56.4297 41.5938 56.4844 41.4141C56.5781 41.0469 56.6172 41.0391 57.0156 41.2422C57.5859 41.5391 57.9219 42.0782 57.9219 42.7344C57.9297 43.586 57.2969 44.25 56.25 44.4844C54.4531 44.8985 52.7891 44.1641 52.0625 42.6328C51.7031 41.8672 51.5625 41.1641 51.5625 40.0313C51.5625 37.6563 52.3125 35.7422 53.875 34.1875C55.3047 32.7578 57.5234 31.6563 60.0156 31.1563C60.7812 31 61.125 30.9766 62.5781 30.9844C66.4922 30.9922 69.2734 31.8985 71.0312 33.7344C72.3984 35.1719 73.0781 37.1719 72.9375 39.4141C72.8516 40.9219 72.4922 41.8594 71.6719 42.7344C70.8359 43.6172 69.7891 44.0703 68.2188 44.2266C66.0703 44.4453 63.9531 43.461 63.2188 41.8907C63.0312 41.4922 63.0078 41.3516 63.0078 40.625C63.0078 39.9063 63.0312 39.75 63.2188 39.3672C63.5938 38.5625 64.3594 37.9922 65.1875 37.9063L65.5625 37.8672L65.5078 38.1953C65.4453 38.5938 65.5938 39.5547 65.7891 39.9297C65.9766 40.3047 66.4141 40.6719 66.7734 40.7735C67.1875 40.8907 68.0078 40.8828 68.3047 40.7578C69.0391 40.4453 69.4609 39.7578 69.5156 38.7735C69.5469 38.1953 69.5312 38.086 69.3438 37.7032C68.8203 36.6328 67.5859 36.0157 65.9766 36.0157C65.1406 36.0157 64.5391 36.1563 63.7891 36.5157C61.875 37.4532 60.7344 39.8672 61.3281 41.7266C61.9141 43.5469 63.6562 44.9532 65.9375 45.4453C66.9141 45.6563 68.7812 45.6328 69.7109 45.4063C72.1328 44.8047 73.8359 43.1328 74.5391 40.6641C74.9609 39.1797 74.7656 37.1016 74.0469 35.5235C73.5625 34.4688 73.8828 34.6563 76.25 36.7969C79.8438 40.0469 81.1953 41.1875 82.8125 42.3438C85.2109 44.0547 87.5859 45.1485 89.8828 45.6016C90.8672 45.7969 93.2891 45.7969 94.2188 45.6016C96.8047 45.0625 98.4609 43.8672 99.4062 41.8672C99.8281 40.9844 99.9609 40.3985 99.9531 39.4532C99.9453 37.0703 98.625 35.2344 96.3516 34.4453C95.125 34.0235 93.0938 33.8516 92.0703 34.0938C89.9766 34.586 88.5547 36.2891 88.8203 37.9688C88.9844 38.9766 89.5391 39.7188 90.4531 40.1407C90.8281 40.3125 91.0078 40.3516 91.6016 40.3516C92.4922 40.3516 93.0156 40.1797 93.4766 39.7344C94.3047 38.9375 94.1172 37.5391 93.1094 37.0235C92.9453 36.9375 92.8125 36.8438 92.8125 36.8047C92.8125 36.6563 93.1484 36.3282 93.4609 36.1797C94.1172 35.8594 95.5078 36.0078 96.4219 36.5C97.4609 37.0547 97.9688 38.0469 97.9688 39.5313C97.9688 40.7891 97.5859 41.7813 96.7734 42.5938C95.6406 43.7266 94.1953 44.2344 92.1094 44.2344C88.2031 44.2344 85.3672 42.6797 78.4766 36.7266C75.0938 33.8125 73.9766 32.7891 74.0547 32.711C74.1094 32.6563 74.4922 32.7344 75.2891 32.9532C77.75 33.6485 78.8438 33.75 80.4141 33.4297C81.9922 33.1094 83.0547 32.5703 84.0625 31.5625C84.8281 30.8047 85.2812 30.0235 85.5625 29.0078C85.7891 28.1797 85.8047 26.3203 85.5938 25.5078C85.2578 24.1875 84.4375 22.961 83.4062 22.2344C81.3906 20.8047 78.3281 20.3907 76.0938 21.2578C74.0391 22.0469 72.5781 23.961 72.7812 25.5782C72.9688 27.0625 73.9375 27.9375 75.4688 28.0313C76.4062 28.086 76.9453 27.9219 77.4297 27.4375C77.8516 27.0078 78.0078 26.5782 77.9453 25.9688C77.8438 24.9532 77.1797 24.3907 76.0625 24.3516C75.7969 24.3438 75.625 24.2969 75.625 24.25C75.625 24.1172 76.1562 23.4297 76.4609 23.1719C77.5469 22.25 79.9531 22.3047 81.7031 23.2891C82.3594 23.6563 83.2109 24.5547 83.5078 25.1875C84.4062 27.0547 83.9453 29.5235 82.4766 30.8203C82.0078 31.2344 81.0234 31.7422 80.3516 31.9141C78.9219 32.2891 77.0625 32.0703 74.2969 31.211C72.1016 30.5235 68.3672 29.7969 65.3125 29.4453C63.3984 29.2344 61.3438 29.211 60.1406 29.4063C56.4297 29.9922 53.0625 31.8672 51.3281 34.3047C50.9531 34.8438 50.3359 36 50.0938 36.6407L49.9844 36.9141L49.9062 36.7188C49.2266 35.1328 48.3594 33.8125 47.375 32.8907C44.5625 30.2657 40.3125 28.8282 36.2656 29.125C33.2188 29.3594 28.6094 30.2578 25.4688 31.2422C23.4844 31.8594 21.7969 32.1563 20.6641 32.086C19.2266 31.9922 18.1875 31.5469 17.2578 30.625C16.3047 29.6797 15.9297 28.7266 15.9297 27.2657C15.9219 25.8672 16.2891 24.961 17.2266 24.0235C18.1406 23.1016 19.3281 22.6016 20.75 22.5235C22.2578 22.4375 23.3438 22.875 24 23.8282C24.1562 24.0625 24.2969 24.2735 24.2969 24.2969C24.2969 24.3203 24.0625 24.3516 23.7734 24.3594C22.7812 24.3828 22.1484 24.8672 21.9531 25.7422C21.6641 27.0547 22.6016 28.0469 24.1406 28.0469C25.5 28.0469 26.4844 27.4532 26.8906 26.3828C27.7109 24.2266 25.9375 21.7969 23 21.0469C22.1641 20.836 20.8828 20.75 20.0781 20.8594Z" fill="#A7B3C7"/>
</g>
<defs>
<clipPath id="clip0_646_1388">
<rect width="100" height="60" fill="white"/>
</clipPath>
</defs>
</svg>
